STARTFONT 2.1
COMMENT
COMMENT Converted from OpenType font "PressStart2P-Regular.ttf" by "otf2bdf 3.0".
COMMENT
FONT -FreeType-Press Start 2P-Medium-R-Normal--16-120-96-96-P-134-ISO10646-1
SIZE 12 96 96
FONTBOUNDINGBOX 28 16 -12 -6
STARTPROPERTIES 19
FOUNDRY "FreeType"
FAMILY_NAME "Press Start 2P"
WEIGHT_NAME "Medium"
SLANT "R"
SETWIDTH_NAME "Normal"
ADD_STYLE_NAME ""
PIXEL_SIZE 16
POINT_SIZE 120
RESOLUTION_X 96
RESOLUTION_Y 96
SPACING "P"
AVERAGE_WIDTH 134
CHARSET_REGISTRY "ISO10646"
CHARSET_ENCODING "1"
FONT_ASCENT 16
FONT_DESCENT 0
COPYRIGHT "Copyright 2012 The Press Start 2P Project Authors (cody@zone38.net), with Reserved Font Name "Press Start 2P""
_OTF_FONTFILE "PressStart2P-Regular.ttf"
_OTF_PSNAME "PressStart2P-Regular"
ENDPROPERTIES
CHARS 656
STARTCHAR 0000
ENCODING 0
SWIDTH 0 0
DWIDTH 0 0
BBX 0 0 0 0
BITMAP
ENDCHAR
STARTCHAR 000D
ENCODING 13
SWIDTH 1000 0
DWIDTH 16 0
BBX 0 0 0 0
BITMAP
ENDCHAR
STARTCHAR 0020
ENCODING 32
SWIDTH 1000 0
DWIDTH 16 0
BBX 0 0 0 0
BITMAP
ENDCHAR
STARTCHAR 0021
ENCODING 33
SWIDTH 1000 0
DWIDTH 16 0
BBX 6 14 4 2
BITMAP
FC
FC
FC
FC
FC
FC
F0
F0
F0
F0
00
00
F0
F0
ENDCHAR
STARTCHAR 0022
ENCODING 34
SWIDTH 1000 0
DWIDTH 16 0
BBX 10 6 2 10
BITMAP
F3C0
F3C0
F3C0
F3C0
F3C0
F3C0
ENDCHAR
STARTCHAR 0023
ENCODING 35
SWIDTH 1000 0
DWIDTH 16 0
BBX 14 14 0 2
BITMAP
3CF0
3CF0
FFFC
FFFC
3CF0
3CF0
3CF0
3CF0
3CF0
3CF0
FFFC
FFFC
3CF0
3CF0
ENDCHAR
STARTCHAR 0024
ENCODING 36
SWIDTH 1000 0
DWIDTH 16 0
BBX 14 14 0 2
BITMAP
0300
0300
3FF0
3FF0
F300
F300
3FF0
3FF0
033C
033C
FFF0
FFF0
0300
0300
ENDCHAR
STARTCHAR 0025
ENCODING 37
SWIDTH 1000 0
DWIDTH 16 0
BBX 14 14 0 2
BITMAP
3C0C
3C0C
CC30
CC30
F0C0
F0C0
0300
0300
0C3C
0C3C
30CC
30CC
C0F0
C0F0
ENDCHAR
STARTCHAR 0026
ENCODING 38
SWIDTH 1000 0
DWIDTH 16 0
BBX 14 14 0 2
BITMAP
3F00
3F00
F3C0
F3C0
F3C0
F3C0
3F00
3F00
F3CC
F3CC
F0F0
F0F0
3FFC
3FFC
ENDCHAR
STARTCHAR 0027
ENCODING 39
SWIDTH 1000 0
DWIDTH 16 0
BBX 4 6 4 10
BITMAP
F0
F0
F0
F0
F0
F0
ENDCHAR
STARTCHAR 0028
ENCODING 40
SWIDTH 1000 0
DWIDTH 16 0
BBX 8 14 4 2
BITMAP
0F
0F
3C
3C
F0
F0
F0
F0
F0
F0
3C
3C
0F
0F
ENDCHAR
STARTCHAR 0029
ENCODING 41
SWIDTH 1000 0
DWIDTH 16 0
BBX 8 14 2 2
BITMAP
F0
F0
3C
3C
0F
0F
0F
0F
0F
0F
3C
3C
F0
F0
ENDCHAR
STARTCHAR 002A
ENCODING 42
SWIDTH 1000 0
DWIDTH 16 0
BBX 14 10 0 4
BITMAP
3CF0
3CF0
0FC0
0FC0
FFFC
FFFC
0FC0
0FC0
3CF0
3CF0
ENDCHAR
STARTCHAR 002B
ENCODING 43
SWIDTH 1000 0
DWIDTH 16 0
BBX 12 10 2 4
BITMAP
0F00
0F00
0F00
0F00
FFF0
FFF0
0F00
0F00
0F00
0F00
ENDCHAR
STARTCHAR 002C
ENCODING 44
SWIDTH 1000 0
DWIDTH 16 0
BBX 6 6 2 0
BITMAP
3C
3C
3C
3C
F0
F0
ENDCHAR
STARTCHAR 002D
ENCODING 45
SWIDTH 1000 0
DWIDTH 16 0
BBX 12 2 2 8
BITMAP
FFF0
FFF0
ENDCHAR
STARTCHAR 002E
ENCODING 46
SWIDTH 1000 0
DWIDTH 16 0
BBX 4 4 4 2
BITMAP
F0
F0
F0
F0
ENDCHAR
STARTCHAR 002F
ENCODING 47
SWIDTH 1000 0
DWIDTH 16 0
BBX 14 14 0 2
BITMAP
000C
000C
0030
0030
00C0
00C0
0300
0300
0C00
0C00
3000
3000
C000
C000
ENDCHAR
STARTCHAR 0030
ENCODING 48
SWIDTH 1000 0
DWIDTH 16 0
BBX 14 14 0 2
BITMAP
0FC0
0FC0
30F0
30F0
F03C
F03C
F03C
F03C
F03C
F03C
3C30
3C30
0FC0
0FC0
ENDCHAR
STARTCHAR 0031
ENCODING 49
SWIDTH 1000 0
DWIDTH 16 0
BBX 12 14 2 2
BITMAP
0F00
0F00
3F00
3F00
0F00
0F00
0F00
0F00
0F00
0F00
0F00
0F00
FFF0
FFF0
ENDCHAR
STARTCHAR 0032
ENCODING 50
SWIDTH 1000 0
DWIDTH 16 0
BBX 14 14 0 2
BITMAP
3FF0
3FF0
F03C
F03C
00FC
00FC
0FF0
0FF0
3FC0
3FC0
FC00
FC00
FFFC
FFFC
ENDCHAR
STARTCHAR 0033
ENCODING 51
SWIDTH 1000 0
DWIDTH 16 0
BBX 14 14 0 2
BITMAP
3FFC
3FFC
00F0
00F0
03C0
03C0
0FF0
0FF0
003C
003C
F03C
F03C
3FF0
3FF0
ENDCHAR
STARTCHAR 0034
ENCODING 52
SWIDTH 1000 0
DWIDTH 16 0
BBX 14 14 0 2
BITMAP
03F0
03F0
0FF0
0FF0
3CF0
3CF0
F0F0
F0F0
FFFC
FFFC
00F0
00F0
00F0
00F0
ENDCHAR
STARTCHAR 0035
ENCODING 53
SWIDTH 1000 0
DWIDTH 16 0
BBX 14 14 0 2
BITMAP
FFF0
FFF0
F000
F000
FFF0
FFF0
003C
003C
003C
003C
F03C
F03C
3FF0
3FF0
ENDCHAR
STARTCHAR 0036
ENCODING 54
SWIDTH 1000 0
DWIDTH 16 0
BBX 14 14 0 2
BITMAP
0FF0
0FF0
3C00
3C00
F000
F000
FFF0
FFF0
F03C
F03C
F03C
F03C
3FF0
3FF0
ENDCHAR
STARTCHAR 0037
ENCODING 55
SWIDTH 1000 0
DWIDTH 16 0
BBX 14 14 0 2
BITMAP
FFFC
FFFC
F03C
F03C
00F0
00F0
03C0
03C0
0F00
0F00
0F00
0F00
0F00
0F00
ENDCHAR
STARTCHAR 0038
ENCODING 56
SWIDTH 1000 0
DWIDTH 16 0
BBX 14 14 0 2
BITMAP
3FC0
3FC0
F030
F030
FC30
FC30
3FC0
3FC0
C3FC
C3FC
C03C
C03C
3FF0
3FF0
ENDCHAR
STARTCHAR 0039
ENCODING 57
SWIDTH 1000 0
DWIDTH 16 0
BBX 14 14 0 2
BITMAP
3FF0
3FF0
F03C
F03C
F03C
F03C
3FFC
3FFC
003C
003C
00F0
00F0
3FC0
3FC0
ENDCHAR
STARTCHAR 003A
ENCODING 58
SWIDTH 1000 0
DWIDTH 16 0
BBX 4 10 4 4
BITMAP
F0
F0
F0
F0
00
00
F0
F0
F0
F0
ENDCHAR
STARTCHAR 003B
ENCODING 59
SWIDTH 1000 0
DWIDTH 16 0
BBX 6 12 2 2
BITMAP
3C
3C
3C
3C
00
00
3C
3C
3C
3C
F0
F0
ENDCHAR
STARTCHAR 003C
ENCODING 60
SWIDTH 1000 0
DWIDTH 16 0
BBX 10 14 2 2
BITMAP
03C0
03C0
0F00
0F00
3C00
3C00
F000
F000
3C00
3C00
0F00
0F00
03C0
03C0
ENDCHAR
STARTCHAR 003D
ENCODING 61
SWIDTH 1000 0
DWIDTH 16 0
BBX 14 6 0 6
BITMAP
FFFC
FFFC
0000
0000
FFFC
FFFC
ENDCHAR
STARTCHAR 003E
ENCODING 62
SWIDTH 1000 0
DWIDTH 16 0
BBX 10 14 2 2
BITMAP
F000
F000
3C00
3C00
0F00
0F00
03C0
03C0
0F00
0F00
3C00
3C00
F000
F000
ENDCHAR
STARTCHAR 003F
ENCODING 63
SWIDTH 1000 0
DWIDTH 16 0
BBX 14 14 0 2
BITMAP
3FF0
3FF0
FFFC
FFFC
F03C
F03C
00F0
00F0
0FC0
0FC0
0000
0000
0FC0
0FC0
ENDCHAR
STARTCHAR 0040
ENCODING 64
SWIDTH 1000 0
DWIDTH 16 0
BBX 14 14 0 2
BITMAP
3FF0
3FF0
C00C
C00C
CFCC
CFCC
CCCC
CCCC
CFFC
CFFC
C000
C000
3FF0
3FF0
ENDCHAR
STARTCHAR 0041
ENCODING 65
SWIDTH 1000 0
DWIDTH 16 0
BBX 14 14 0 2
BITMAP
0FC0
0FC0
3CF0
3CF0
F03C
F03C
F03C
F03C
FFFC
FFFC
F03C
F03C
F03C
F03C
ENDCHAR
STARTCHAR 0042
ENCODING 66
SWIDTH 1000 0
DWIDTH 16 0
BBX 14 14 0 2
BITMAP
FFF0
FFF0
F03C
F03C
F03C
F03C
FFF0
FFF0
F03C
F03C
F03C
F03C
FFF0
FFF0
ENDCHAR
STARTCHAR 0043
ENCODING 67
SWIDTH 1000 0
DWIDTH 16 0
BBX 14 14 0 2
BITMAP
0FF0
0FF0
3C3C
3C3C
F000
F000
F000
F000
F000
F000
3C3C
3C3C
0FF0
0FF0
ENDCHAR
STARTCHAR 0044
ENCODING 68
SWIDTH 1000 0
DWIDTH 16 0
BBX 14 14 0 2
BITMAP
FFC0
FFC0
F0F0
F0F0
F03C
F03C
F03C
F03C
F03C
F03C
F0F0
F0F0
FFC0
FFC0
ENDCHAR
STARTCHAR 0045
ENCODING 69
SWIDTH 1000 0
DWIDTH 16 0
BBX 14 14 0 2
BITMAP
FFFC
FFFC
F000
F000
F000
F000
FFF0
FFF0
F000
F000
F000
F000
FFFC
FFFC
ENDCHAR
STARTCHAR 0046
ENCODING 70
SWIDTH 1000 0
DWIDTH 16 0
BBX 14 14 0 2
BITMAP
FFFC
FFFC
F000
F000
F000
F000
FFF0
FFF0
F000
F000
F000
F000
F000
F000
ENDCHAR
STARTCHAR 0047
ENCODING 71
SWIDTH 1000 0
DWIDTH 16 0
BBX 14 14 0 2
BITMAP
0FFC
0FFC
3C00
3C00
F000
F000
F0FC
F0FC
F03C
F03C
3C3C
3C3C
0FFC
0FFC
ENDCHAR
STARTCHAR 0048
ENCODING 72
SWIDTH 1000 0
DWIDTH 16 0
BBX 14 14 0 2
BITMAP
F03C
F03C
F03C
F03C
F03C
F03C
FFFC
FFFC
F03C
F03C
F03C
F03C
F03C
F03C
ENDCHAR
STARTCHAR 0049
ENCODING 73
SWIDTH 1000 0
DWIDTH 16 0
BBX 12 14 2 2
BITMAP
FFF0
FFF0
0F00
0F00
0F00
0F00
0F00
0F00
0F00
0F00
0F00
0F00
FFF0
FFF0
ENDCHAR
STARTCHAR 004A
ENCODING 74
SWIDTH 1000 0
DWIDTH 16 0
BBX 14 14 0 2
BITMAP
003C
003C
003C
003C
003C
003C
003C
003C
003C
003C
F03C
F03C
3FF0
3FF0
ENDCHAR
STARTCHAR 004B
ENCODING 75
SWIDTH 1000 0
DWIDTH 16 0
BBX 14 14 0 2
BITMAP
F03C
F03C
F0F0
F0F0
F3C0
F3C0
FF00
FF00
FFC0
FFC0
F3F0
F3F0
F0FC
F0FC
ENDCHAR
STARTCHAR 004C
ENCODING 76
SWIDTH 1000 0
DWIDTH 16 0
BBX 12 14 2 2
BITMAP
F000
F000
F000
F000
F000
F000
F000
F000
F000
F000
F000
F000
FFF0
FFF0
ENDCHAR
STARTCHAR 004D
ENCODING 77
SWIDTH 1000 0
DWIDTH 16 0
BBX 14 14 0 2
BITMAP
F03C
F03C
FCFC
FCFC
FFFC
FFFC
F33C
F33C
F33C
F33C
F03C
F03C
F03C
F03C
ENDCHAR
STARTCHAR 004E
ENCODING 78
SWIDTH 1000 0
DWIDTH 16 0
BBX 14 14 0 2
BITMAP
F03C
F03C
FC3C
FC3C
FF3C
FF3C
F3FC
F3FC
F0FC
F0FC
F03C
F03C
F03C
F03C
ENDCHAR
STARTCHAR 004F
ENCODING 79
SWIDTH 1000 0
DWIDTH 16 0
BBX 14 14 0 2
BITMAP
3FF0
3FF0
F03C
F03C
F03C
F03C
F03C
F03C
F03C
F03C
F03C
F03C
3FF0
3FF0
ENDCHAR
STARTCHAR 0050
ENCODING 80
SWIDTH 1000 0
DWIDTH 16 0
BBX 14 14 0 2
BITMAP
FFF0
FFF0
F03C
F03C
F03C
F03C
F03C
F03C
FFF0
FFF0
F000
F000
F000
F000
ENDCHAR
STARTCHAR 0051
ENCODING 81
SWIDTH 1000 0
DWIDTH 16 0
BBX 14 14 0 2
BITMAP
3FF0
3FF0
F03C
F03C
F03C
F03C
F03C
F03C
F3FC
F3FC
F0F0
F0F0
3FCC
3FCC
ENDCHAR
STARTCHAR 0052
ENCODING 82
SWIDTH 1000 0
DWIDTH 16 0
BBX 14 14 0 2
BITMAP
FFF0
FFF0
F03C
F03C
F03C
F03C
F0FC
F0FC
FFC0
FFC0
F3F0
F3F0
F0FC
F0FC
ENDCHAR
STARTCHAR 0053
ENCODING 83
SWIDTH 1000 0
DWIDTH 16 0
BBX 14 14 0 2
BITMAP
3FF0
3FF0
F03C
F03C
F000
F000
3FF0
3FF0
003C
003C
F03C
F03C
3FF0
3FF0
ENDCHAR
STARTCHAR 0054
ENCODING 84
SWIDTH 1000 0
DWIDTH 16 0
BBX 12 14 2 2
BITMAP
FFF0
FFF0
0F00
0F00
0F00
0F00
0F00
0F00
0F00
0F00
0F00
0F00
0F00
0F00
ENDCHAR
STARTCHAR 0055
ENCODING 85
SWIDTH 1000 0
DWIDTH 16 0
BBX 14 14 0 2
BITMAP
F03C
F03C
F03C
F03C
F03C
F03C
F03C
F03C
F03C
F03C
F03C
F03C
3FF0
3FF0
ENDCHAR
STARTCHAR 0056
ENCODING 86
SWIDTH 1000 0
DWIDTH 16 0
BBX 14 14 0 2
BITMAP
F03C
F03C
F03C
F03C
F03C
F03C
FCFC
FCFC
3FF0
3FF0
0FC0
0FC0
0300
0300
ENDCHAR
STARTCHAR 0057
ENCODING 87
SWIDTH 1000 0
DWIDTH 16 0
BBX 14 14 0 2
BITMAP
F33C
F33C
F33C
F33C
F33C
F33C
F33C
F33C
FFFC
FFFC
FCFC
FCFC
3030
3030
ENDCHAR
STARTCHAR 0058
ENCODING 88
SWIDTH 1000 0
DWIDTH 16 0
BBX 14 14 0 2
BITMAP
F03C
F03C
F03C
F03C
3CF0
3CF0
0FC0
0FC0
3CF0
3CF0
F03C
F03C
F03C
F03C
ENDCHAR
STARTCHAR 0059
ENCODING 89
SWIDTH 1000 0
DWIDTH 16 0
BBX 12 14 2 2
BITMAP
F0F0
F0F0
F0F0
F0F0
F0F0
F0F0
3FC0
3FC0
0F00
0F00
0F00
0F00
0F00
0F00
ENDCHAR
STARTCHAR 005A
ENCODING 90
SWIDTH 1000 0
DWIDTH 16 0
BBX 14 14 0 2
BITMAP
FFFC
FFFC
00FC
00FC
03F0
03F0
0FC0
0FC0
3F00
3F00
FC00
FC00
FFFC
FFFC
ENDCHAR
STARTCHAR 005B
ENCODING 91
SWIDTH 1000 0
DWIDTH 16 0
BBX 8 14 4 2
BITMAP
FF
FF
F0
F0
F0
F0
F0
F0
F0
F0
F0
F0
FF
FF
ENDCHAR
STARTCHAR 005C
ENCODING 92
SWIDTH 1000 0
DWIDTH 16 0
BBX 14 14 0 2
BITMAP
C000
C000
3000
3000
0C00
0C00
0300
0300
00C0
00C0
0030
0030
000C
000C
ENDCHAR
STARTCHAR 005D
ENCODING 93
SWIDTH 1000 0
DWIDTH 16 0
BBX 8 14 2 2
BITMAP
FF
FF
0F
0F
0F
0F
0F
0F
0F
0F
0F
0F
FF
FF
ENDCHAR
STARTCHAR 005E
ENCODING 94
SWIDTH 1000 0
DWIDTH 16 0
BBX 10 4 2 12
BITMAP
3F00
3F00
F3C0
F3C0
ENDCHAR
STARTCHAR 005F
ENCODING 95
SWIDTH 1000 0
DWIDTH 16 0
BBX 14 2 0 0
BITMAP
FFFC
FFFC
ENDCHAR
STARTCHAR 0060
ENCODING 96
SWIDTH 1000 0
DWIDTH 16 0
BBX 4 4 6 12
BITMAP
C0
C0
30
30
ENDCHAR
STARTCHAR 0061
ENCODING 97
SWIDTH 1000 0
DWIDTH 16 0
BBX 14 10 0 2
BITMAP
3FF0
3FF0
003C
003C
3FFC
3FFC
F03C
F03C
3FFC
3FFC
ENDCHAR
STARTCHAR 0062
ENCODING 98
SWIDTH 1000 0
DWIDTH 16 0
BBX 14 14 0 2
BITMAP
F000
F000
F000
F000
FFF0
FFF0
F03C
F03C
F03C
F03C
F03C
F03C
3FF0
3FF0
ENDCHAR
STARTCHAR 0063
ENCODING 99
SWIDTH 1000 0
DWIDTH 16 0
BBX 14 10 0 2
BITMAP
3FFC
3FFC
F000
F000
F000
F000
F000
F000
3FFC
3FFC
ENDCHAR
STARTCHAR 0064
ENCODING 100
SWIDTH 1000 0
DWIDTH 16 0
BBX 14 14 0 2
BITMAP
003C
003C
003C
003C
3FFC
3FFC
F03C
F03C
F03C
F03C
F03C
F03C
3FFC
3FFC
ENDCHAR
STARTCHAR 0065
ENCODING 101
SWIDTH 1000 0
DWIDTH 16 0
BBX 14 10 0 2
BITMAP
3FF0
3FF0
F03C
F03C
FFFC
FFFC
F000
F000
3FF0
3FF0
ENDCHAR
STARTCHAR 0066
ENCODING 102
SWIDTH 1000 0
DWIDTH 16 0
BBX 12 14 2 2
BITMAP
03F0
03F0
0F00
0F00
FFF0
FFF0
0F00
0F00
0F00
0F00
0F00
0F00
0F00
0F00
ENDCHAR
STARTCHAR 0067
ENCODING 103
SWIDTH 1000 0
DWIDTH 16 0
BBX 14 12 0 0
BITMAP
3FFC
3FFC
F03C
F03C
F03C
F03C
3FFC
3FFC
003C
003C
3FF0
3FF0
ENDCHAR
STARTCHAR 0068
ENCODING 104
SWIDTH 1000 0
DWIDTH 16 0
BBX 14 14 0 2
BITMAP
F000
F000
F000
F000
FFF0
FFF0
F03C
F03C
F03C
F03C
F03C
F03C
F03C
F03C
ENDCHAR
STARTCHAR 0069
ENCODING 105
SWIDTH 1000 0
DWIDTH 16 0
BBX 12 14 2 2
BITMAP
0F00
0F00
0000
0000
3F00
3F00
0F00
0F00
0F00
0F00
0F00
0F00
FFF0
FFF0
ENDCHAR
STARTCHAR 006A
ENCODING 106
SWIDTH 1000 0
DWIDTH 16 0
BBX 10 16 2 0
BITMAP
03C0
03C0
0000
0000
0FC0
0FC0
03C0
03C0
03C0
03C0
03C0
03C0
03C0
03C0
FF00
FF00
ENDCHAR
STARTCHAR 006B
ENCODING 107
SWIDTH 1000 0
DWIDTH 16 0
BBX 14 14 0 2
BITMAP
F000
F000
F000
F000
F03C
F03C
F0F0
F0F0
FFC0
FFC0
F0F0
F0F0
F03C
F03C
ENDCHAR
STARTCHAR 006C
ENCODING 108
SWIDTH 1000 0
DWIDTH 16 0
BBX 12 14 2 2
BITMAP
3F00
3F00
0F00
0F00
0F00
0F00
0F00
0F00
0F00
0F00
0F00
0F00
FFF0
FFF0
ENDCHAR
STARTCHAR 006D
ENCODING 109
SWIDTH 1000 0
DWIDTH 16 0
BBX 14 10 0 2
BITMAP
FFF0
FFF0
CF3C
CF3C
CF3C
CF3C
CF3C
CF3C
CF3C
CF3C
ENDCHAR
STARTCHAR 006E
ENCODING 110
SWIDTH 1000 0
DWIDTH 16 0
BBX 14 10 0 2
BITMAP
FFF0
FFF0
F03C
F03C
F03C
F03C
F03C
F03C
F03C
F03C
ENDCHAR
STARTCHAR 006F
ENCODING 111
SWIDTH 1000 0
DWIDTH 16 0
BBX 14 10 0 2
BITMAP
3FF0
3FF0
F03C
F03C
F03C
F03C
F03C
F03C
3FF0
3FF0
ENDCHAR
STARTCHAR 0070
ENCODING 112
SWIDTH 1000 0
DWIDTH 16 0
BBX 14 12 0 0
BITMAP
FFF0
FFF0
F03C
F03C
F03C
F03C
FFF0
FFF0
F000
F000
F000
F000
ENDCHAR
STARTCHAR 0071
ENCODING 113
SWIDTH 1000 0
DWIDTH 16 0
BBX 14 12 0 0
BITMAP
3FFC
3FFC
F03C
F03C
F03C
F03C
3FFC
3FFC
003C
003C
003C
003C
ENDCHAR
STARTCHAR 0072
ENCODING 114
SWIDTH 1000 0
DWIDTH 16 0
BBX 12 10 2 2
BITMAP
F3F0
F3F0
FC00
FC00
F000
F000
F000
F000
F000
F000
ENDCHAR
STARTCHAR 0073
ENCODING 115
SWIDTH 1000 0
DWIDTH 16 0
BBX 14 10 0 2
BITMAP
3FF0
3FF0
F000
F000
3FF0
3FF0
003C
003C
FFF0
FFF0
ENDCHAR
STARTCHAR 0074
ENCODING 116
SWIDTH 1000 0
DWIDTH 16 0
BBX 12 14 2 2
BITMAP
0F00
0F00
0F00
0F00
FFF0
FFF0
0F00
0F00
0F00
0F00
0F00
0F00
0F00
0F00
ENDCHAR
STARTCHAR 0075
ENCODING 117
SWIDTH 1000 0
DWIDTH 16 0
BBX 14 10 0 2
BITMAP
F03C
F03C
F03C
F03C
F03C
F03C
F03C
F03C
3FFC
3FFC
ENDCHAR
STARTCHAR 0076
ENCODING 118
SWIDTH 1000 0
DWIDTH 16 0
BBX 12 10 2 2
BITMAP
F0F0
F0F0
F0F0
F0F0
F0F0
F0F0
3FC0
3FC0
0F00
0F00
ENDCHAR
STARTCHAR 0077
ENCODING 119
SWIDTH 1000 0
DWIDTH 16 0
BBX 14 10 0 2
BITMAP
F33C
F33C
F33C
F33C
F33C
F33C
F33C
F33C
3CF0
3CF0
ENDCHAR
STARTCHAR 0078
ENCODING 120
SWIDTH 1000 0
DWIDTH 16 0
BBX 14 10 0 2
BITMAP
F03C
F03C
3CF0
3CF0
0FC0
0FC0
3CF0
3CF0
F03C
F03C
ENDCHAR
STARTCHAR 0079
ENCODING 121
SWIDTH 1000 0
DWIDTH 16 0
BBX 14 12 0 0
BITMAP
F03C
F03C
F03C
F03C
F03C
F03C
3FFC
3FFC
003C
003C
3FF0
3FF0
ENDCHAR
STARTCHAR 007A
ENCODING 122
SWIDTH 1000 0
DWIDTH 16 0
BBX 14 10 0 2
BITMAP
FFFC
FFFC
03F0
03F0
0FC0
0FC0
3F00
3F00
FFFC
FFFC
ENDCHAR
STARTCHAR 007B
ENCODING 123
SWIDTH 1000 0
DWIDTH 16 0
BBX 8 14 4 2
BITMAP
0F
0F
3C
3C
3C
3C
F0
F0
3C
3C
3C
3C
0F
0F
ENDCHAR
STARTCHAR 007C
ENCODING 124
SWIDTH 1000 0
DWIDTH 16 0
BBX 4 14 6 2
BITMAP
F0
F0
F0
F0
F0
F0
F0
F0
F0
F0
F0
F0
F0
F0
ENDCHAR
STARTCHAR 007D
ENCODING 125
SWIDTH 1000 0
DWIDTH 16 0
BBX 8 14 2 2
BITMAP
F0
F0
3C
3C
3C
3C
0F
0F
3C
3C
3C
3C
F0
F0
ENDCHAR
STARTCHAR 007E
ENCODING 126
SWIDTH 1000 0
DWIDTH 16 0
BBX 14 6 0 6
BITMAP
3F00
3F00
CFCC
CFCC
03F0
03F0
ENDCHAR
STARTCHAR 007F
ENCODING 127
SWIDTH 1000 0
DWIDTH 16 0
BBX 10 4 2 2
BITMAP
F3C0
F3C0
F3C0
F3C0
ENDCHAR
STARTCHAR 00A0
ENCODING 160
SWIDTH 1000 0
DWIDTH 16 0
BBX 0 0 0 0
BITMAP
ENDCHAR
STARTCHAR 00A1
ENCODING 161
SWIDTH 1000 0
DWIDTH 16 0
BBX 6 14 4 2
BITMAP
3C
3C
00
00
3C
3C
3C
3C
FC
FC
FC
FC
FC
FC
ENDCHAR
STARTCHAR 00A2
ENCODING 162
SWIDTH 1000 0
DWIDTH 16 0
BBX 14 14 0 2
BITMAP
0300
0300
3FF0
3FF0
F33C
F33C
F300
F300
F33C
F33C
3FF0
3FF0
0300
0300
ENDCHAR
STARTCHAR 00A3
ENCODING 163
SWIDTH 1000 0
DWIDTH 16 0
BBX 14 14 0 2
BITMAP
0FF0
0FF0
3C3C
3C3C
3C00
3C00
FFF0
FFF0
3C00
3C00
3C00
3C00
FFFC
FFFC
ENDCHAR
STARTCHAR 00A4
ENCODING 164
SWIDTH 1000 0
DWIDTH 16 0
BBX 12 10 2 4
BITMAP
CF30
CF30
30C0
30C0
30C0
30C0
30C0
30C0
CF30
CF30
ENDCHAR
STARTCHAR 00A5
ENCODING 165
SWIDTH 1000 0
DWIDTH 16 0
BBX 12 14 2 2
BITMAP
F0F0
F0F0
F0F0
F0F0
3FC0
3FC0
FFF0
FFF0
0F00
0F00
FFF0
FFF0
0F00
0F00
ENDCHAR
STARTCHAR 00A6
ENCODING 166
SWIDTH 1000 0
DWIDTH 16 0
BBX 4 14 6 2
BITMAP
F0
F0
F0
F0
F0
F0
00
00
F0
F0
F0
F0
F0
F0
ENDCHAR
STARTCHAR 00A7
ENCODING 167
SWIDTH 1000 0
DWIDTH 16 0
BBX 12 14 2 2
BITMAP
3FC0
3FC0
F0F0
F0F0
FF00
FF00
30C0
30C0
0FF0
0FF0
F0F0
F0F0
3FC0
3FC0
ENDCHAR
STARTCHAR 00A8
ENCODING 168
SWIDTH 1000 0
DWIDTH 16 0
BBX 10 2 2 14
BITMAP
F3C0
F3C0
ENDCHAR
STARTCHAR 00A9
ENCODING 169
SWIDTH 1000 0
DWIDTH 16 0
BBX 16 16 0 0
BITMAP
0FF0
0FF0
300C
300C
C3C3
C3C3
CC03
CC03
CC03
CC03
C3C3
C3C3
300C
300C
0FF0
0FF0
ENDCHAR
STARTCHAR 00AA
ENCODING 170
SWIDTH 1000 0
DWIDTH 16 0
BBX 10 8 2 8
BITMAP
FF00
FF00
3FC0
3FC0
F3C0
F3C0
3FC0
3FC0
ENDCHAR
STARTCHAR 00AB
ENCODING 171
SWIDTH 1000 0
DWIDTH 16 0
BBX 14 10 0 4
BITMAP
0F3C
0F3C
3CF0
3CF0
F3C0
F3C0
3CF0
3CF0
0F3C
0F3C
ENDCHAR
STARTCHAR 00AC
ENCODING 172
SWIDTH 1000 0
DWIDTH 16 0
BBX 12 6 2 6
BITMAP
FFF0
FFF0
00F0
00F0
00F0
00F0
ENDCHAR
STARTCHAR 00AD
ENCODING 173
SWIDTH 1000 0
DWIDTH 16 0
BBX 12 2 2 8
BITMAP
FFF0
FFF0
ENDCHAR
STARTCHAR 00AE
ENCODING 174
SWIDTH 1000 0
DWIDTH 16 0
BBX 16 16 0 0
BITMAP
0FF0
0FF0
300C
300C
CFC3
CFC3
CC33
CC33
CFC3
CFC3
CC33
CC33
300C
300C
0FF0
0FF0
ENDCHAR
STARTCHAR 00AF
ENCODING 175
SWIDTH 1000 0
DWIDTH 16 0
BBX 10 2 2 14
BITMAP
FFC0
FFC0
ENDCHAR
STARTCHAR 00B0
ENCODING 176
SWIDTH 1000 0
DWIDTH 16 0
BBX 6 6 4 10
BITMAP
30
30
CC
CC
30
30
ENDCHAR
STARTCHAR 00B1
ENCODING 177
SWIDTH 1000 0
DWIDTH 16 0
BBX 12 14 2 2
BITMAP
0F00
0F00
0F00
0F00
FFF0
FFF0
0F00
0F00
0F00
0F00
0000
0000
FFF0
FFF0
ENDCHAR
STARTCHAR 00B2
ENCODING 178
SWIDTH 1000 0
DWIDTH 16 0
BBX 8 8 4 8
BITMAP
FC
FC
0F
0F
3C
3C
FF
FF
ENDCHAR
STARTCHAR 00B3
ENCODING 179
SWIDTH 1000 0
DWIDTH 16 0
BBX 8 8 4 8
BITMAP
FF
FF
3C
3C
0F
0F
FC
FC
ENDCHAR
STARTCHAR 00B4
ENCODING 180
SWIDTH 1000 0
DWIDTH 16 0
BBX 4 4 6 12
BITMAP
30
30
C0
C0
ENDCHAR
STARTCHAR 00B5
ENCODING 181
SWIDTH 1000 0
DWIDTH 16 0
BBX 14 12 0 0
BITMAP
F0F0
F0F0
F0F0
F0F0
F0F0
F0F0
F0F0
F0F0
FF3C
FF3C
F000
F000
ENDCHAR
STARTCHAR 00B6
ENCODING 182
SWIDTH 1000 0
DWIDTH 16 0
BBX 12 14 2 2
BITMAP
3FF0
3FF0
F330
F330
C330
C330
F330
F330
3FF0
3FF0
0330
0330
0330
0330
ENDCHAR
STARTCHAR 00B7
ENCODING 183
SWIDTH 1000 0
DWIDTH 16 0
BBX 4 4 4 6
BITMAP
F0
F0
F0
F0
ENDCHAR
STARTCHAR 00B8
ENCODING 184
SWIDTH 1000 0
DWIDTH 16 0
BBX 6 4 4 0
BITMAP
0C
0C
F0
F0
ENDCHAR
STARTCHAR 00B9
ENCODING 185
SWIDTH 1000 0
DWIDTH 16 0
BBX 8 8 4 8
BITMAP
3C
3C
FC
FC
3C
3C
FF
FF
ENDCHAR
STARTCHAR 00BA
ENCODING 186
SWIDTH 1000 0
DWIDTH 16 0
BBX 10 8 2 8
BITMAP
3F00
3F00
F3C0
F3C0
F3C0
F3C0
3F00
3F00
ENDCHAR
STARTCHAR 00BB
ENCODING 187
SWIDTH 1000 0
DWIDTH 16 0
BBX 14 10 0 4
BITMAP
F3C0
F3C0
3CF0
3CF0
0F3C
0F3C
3CF0
3CF0
F3C0
F3C0
ENDCHAR
STARTCHAR 00BC
ENCODING 188
SWIDTH 1000 0
DWIDTH 16 0
BBX 14 14 0 2
BITMAP
300C
300C
F030
F030
30C0
30C0
330C
330C
0C3C
0C3C
30FC
30FC
C00C
C00C
ENDCHAR
STARTCHAR 00BD
ENCODING 189
SWIDTH 1000 0
DWIDTH 16 0
BBX 14 14 0 2
BITMAP
300C
300C
F030
F030
30C0
30C0
333C
333C
0C0C
0C0C
3030
3030
C0FC
C0FC
ENDCHAR
STARTCHAR 00BE
ENCODING 190
SWIDTH 1000 0
DWIDTH 16 0
BBX 14 14 0 2
BITMAP
FC0C
FC0C
3030
3030
0CC0
0CC0
F30C
F30C
0C3C
0C3C
30FC
30FC
C00C
C00C
ENDCHAR
STARTCHAR 00BF
ENCODING 191
SWIDTH 1000 0
DWIDTH 16 0
BBX 14 14 0 2
BITMAP
0FC0
0FC0
0000
0000
0FC0
0FC0
3C00
3C00
F03C
F03C
FFFC
FFFC
3FF0
3FF0
ENDCHAR
STARTCHAR 00C0
ENCODING 192
SWIDTH 1000 0
DWIDTH 16 0
BBX 14 14 0 2
BITMAP
0C00
0C00
0300
0300
0FC0
0FC0
3CF0
3CF0
F03C
F03C
FFFC
FFFC
F03C
F03C
ENDCHAR
STARTCHAR 00C1
ENCODING 193
SWIDTH 1000 0
DWIDTH 16 0
BBX 14 14 0 2
BITMAP
00C0
00C0
0300
0300
0FC0
0FC0
3CF0
3CF0
F03C
F03C
FFFC
FFFC
F03C
F03C
ENDCHAR
STARTCHAR 00C2
ENCODING 194
SWIDTH 1000 0
DWIDTH 16 0
BBX 14 14 0 2
BITMAP
0FC0
0FC0
3CF0
3CF0
0FC0
0FC0
3CF0
3CF0
F03C
F03C
FFFC
FFFC
F03C
F03C
ENDCHAR
STARTCHAR 00C3
ENCODING 195
SWIDTH 1000 0
DWIDTH 16 0
BBX 14 14 0 2
BITMAP
0F30
0F30
33C0
33C0
0FC0
0FC0
3CF0
3CF0
F03C
F03C
FFFC
FFFC
F03C
F03C
ENDCHAR
STARTCHAR 00C4
ENCODING 196
SWIDTH 1000 0
DWIDTH 16 0
BBX 14 14 0 2
BITMAP
3CF0
3CF0
0000
0000
0FC0
0FC0
3CF0
3CF0
F03C
F03C
FFFC
FFFC
F03C
F03C
ENDCHAR
STARTCHAR 00C5
ENCODING 197
SWIDTH 1000 0
DWIDTH 16 0
BBX 14 14 0 2
BITMAP
0300
0300
0CC0
0CC0
0FC0
0FC0
3CF0
3CF0
F03C
F03C
FFFC
FFFC
F03C
F03C
ENDCHAR
STARTCHAR 00C6
ENCODING 198
SWIDTH 1000 0
DWIDTH 16 0
BBX 14 14 0 2
BITMAP
0FFC
0FFC
3FC0
3FC0
F3C0
F3C0
F3FC
F3FC
FFC0
FFC0
F3C0
F3C0
F3FC
F3FC
ENDCHAR
STARTCHAR 00C7
ENCODING 199
SWIDTH 1000 0
DWIDTH 16 0
BBX 14 16 0 0
BITMAP
0FF0
0FF0
3C3C
3C3C
F000
F000
F000
F000
3C3C
3C3C
0FF0
0FF0
00C0
00C0
0F00
0F00
ENDCHAR
STARTCHAR 00C8
ENCODING 200
SWIDTH 1000 0
DWIDTH 16 0
BBX 14 14 0 2
BITMAP
0C00
0C00
0300
0300
FFFC
FFFC
F000
F000
FFF0
FFF0
F000
F000
FFFC
FFFC
ENDCHAR
STARTCHAR 00C9
ENCODING 201
SWIDTH 1000 0
DWIDTH 16 0
BBX 14 14 0 2
BITMAP
00C0
00C0
0300
0300
FFFC
FFFC
F000
F000
FFF0
FFF0
F000
F000
FFFC
FFFC
ENDCHAR
STARTCHAR 00CA
ENCODING 202
SWIDTH 1000 0
DWIDTH 16 0
BBX 14 14 0 2
BITMAP
0FC0
0FC0
3CF0
3CF0
FFFC
FFFC
F000
F000
FFF0
FFF0
F000
F000
FFFC
FFFC
ENDCHAR
STARTCHAR 00CB
ENCODING 203
SWIDTH 1000 0
DWIDTH 16 0
BBX 14 14 0 2
BITMAP
3CF0
3CF0
0000
0000
FFFC
FFFC
F000
F000
FFF0
FFF0
F000
F000
FFFC
FFFC
ENDCHAR
STARTCHAR 00CC
ENCODING 204
SWIDTH 1000 0
DWIDTH 16 0
BBX 12 14 2 2
BITMAP
0C00
0C00
0300
0300
FFF0
FFF0
0F00
0F00
0F00
0F00
0F00
0F00
FFF0
FFF0
ENDCHAR
STARTCHAR 00CD
ENCODING 205
SWIDTH 1000 0
DWIDTH 16 0
BBX 12 14 2 2
BITMAP
0300
0300
0C00
0C00
FFF0
FFF0
0F00
0F00
0F00
0F00
0F00
0F00
FFF0
FFF0
ENDCHAR
STARTCHAR 00CE
ENCODING 206
SWIDTH 1000 0
DWIDTH 16 0
BBX 12 14 2 2
BITMAP
0F00
0F00
3FC0
3FC0
FFF0
FFF0
0F00
0F00
0F00
0F00
0F00
0F00
FFF0
FFF0
ENDCHAR
STARTCHAR 00CF
ENCODING 207
SWIDTH 1000 0
DWIDTH 16 0
BBX 12 14 2 2
BITMAP
F0F0
F0F0
0000
0000
FFF0
FFF0
0F00
0F00
0F00
0F00
0F00
0F00
FFF0
FFF0
ENDCHAR
STARTCHAR 00D0
ENCODING 208
SWIDTH 1000 0
DWIDTH 16 0
BBX 14 14 0 2
BITMAP
3FC0
3FC0
3CF0
3CF0
3C3C
3C3C
FF3C
FF3C
3C3C
3C3C
3CF0
3CF0
3FC0
3FC0
ENDCHAR
STARTCHAR 00D1
ENCODING 209
SWIDTH 1000 0
DWIDTH 16 0
BBX 14 14 0 2
BITMAP
0F30
0F30
33C0
33C0
FC3C
FC3C
FF3C
FF3C
FFFC
FFFC
F3FC
F3FC
F0FC
F0FC
ENDCHAR
STARTCHAR 00D2
ENCODING 210
SWIDTH 1000 0
DWIDTH 16 0
BBX 14 14 0 2
BITMAP
0C00
0C00
0300
0300
3FF0
3FF0
F03C
F03C
F03C
F03C
F03C
F03C
3FF0
3FF0
ENDCHAR
STARTCHAR 00D3
ENCODING 211
SWIDTH 1000 0
DWIDTH 16 0
BBX 14 14 0 2
BITMAP
00C0
00C0
0300
0300
3FF0
3FF0
F03C
F03C
F03C
F03C
F03C
F03C
3FF0
3FF0
ENDCHAR
STARTCHAR 00D4
ENCODING 212
SWIDTH 1000 0
DWIDTH 16 0
BBX 14 14 0 2
BITMAP
0FC0
0FC0
3CF0
3CF0
3FF0
3FF0
F03C
F03C
F03C
F03C
F03C
F03C
3FF0
3FF0
ENDCHAR
STARTCHAR 00D5
ENCODING 213
SWIDTH 1000 0
DWIDTH 16 0
BBX 14 14 0 2
BITMAP
0F30
0F30
33C0
33C0
3FF0
3FF0
F03C
F03C
F03C
F03C
F03C
F03C
3FF0
3FF0
ENDCHAR
STARTCHAR 00D6
ENCODING 214
SWIDTH 1000 0
DWIDTH 16 0
BBX 14 14 0 2
BITMAP
3CF0
3CF0
0000
0000
3FF0
3FF0
F03C
F03C
F03C
F03C
F03C
F03C
3FF0
3FF0
ENDCHAR
STARTCHAR 00D7
ENCODING 215
SWIDTH 1000 0
DWIDTH 16 0
BBX 10 10 2 4
BITMAP
C0C0
C0C0
3300
3300
0C00
0C00
3300
3300
C0C0
C0C0
ENDCHAR
STARTCHAR 00D8
ENCODING 216
SWIDTH 1000 0
DWIDTH 16 0
BBX 14 14 0 2
BITMAP
3FF0
3FF0
F03C
F03C
F0FC
F0FC
F33C
F33C
FC3C
FC3C
F03C
F03C
3FF0
3FF0
ENDCHAR
STARTCHAR 00D9
ENCODING 217
SWIDTH 1000 0
DWIDTH 16 0
BBX 14 14 0 2
BITMAP
0C00
0C00
0300
0300
F03C
F03C
F03C
F03C
F03C
F03C
F03C
F03C
3FF0
3FF0
ENDCHAR
STARTCHAR 00DA
ENCODING 218
SWIDTH 1000 0
DWIDTH 16 0
BBX 14 14 0 2
BITMAP
00C0
00C0
0300
0300
F03C
F03C
F03C
F03C
F03C
F03C
F03C
F03C
3FF0
3FF0
ENDCHAR
STARTCHAR 00DB
ENCODING 219
SWIDTH 1000 0
DWIDTH 16 0
BBX 14 14 0 2
BITMAP
0FC0
0FC0
3CF0
3CF0
0000
0000
F03C
F03C
F03C
F03C
F03C
F03C
3FF0
3FF0
ENDCHAR
STARTCHAR 00DC
ENCODING 220
SWIDTH 1000 0
DWIDTH 16 0
BBX 14 14 0 2
BITMAP
3CF0
3CF0
0000
0000
F03C
F03C
F03C
F03C
F03C
F03C
F03C
F03C
3FF0
3FF0
ENDCHAR
STARTCHAR 00DD
ENCODING 221
SWIDTH 1000 0
DWIDTH 16 0
BBX 12 14 2 2
BITMAP
0300
0300
0C00
0C00
F0F0
F0F0
F0F0
F0F0
3FC0
3FC0
0F00
0F00
0F00
0F00
ENDCHAR
STARTCHAR 00DE
ENCODING 222
SWIDTH 1000 0
DWIDTH 16 0
BBX 14 14 0 2
BITMAP
F000
F000
FFF0
FFF0
F03C
F03C
F03C
F03C
F03C
F03C
FFF0
FFF0
F000
F000
ENDCHAR
STARTCHAR 00DF
ENCODING 223
SWIDTH 1000 0
DWIDTH 16 0
BBX 12 14 2 2
BITMAP
3FC0
3FC0
F0F0
F0F0
F0F0
F0F0
F3C0
F3C0
F0F0
F0F0
FCF0
FCF0
F3C0
F3C0
ENDCHAR
STARTCHAR 00E0
ENCODING 224
SWIDTH 1000 0
DWIDTH 16 0
BBX 14 14 0 2
BITMAP
0C00
0C00
0300
0300
3FF0
3FF0
003C
003C
3FFC
3FFC
F03C
F03C
3FFC
3FFC
ENDCHAR
STARTCHAR 00E1
ENCODING 225
SWIDTH 1000 0
DWIDTH 16 0
BBX 14 14 0 2
BITMAP
00C0
00C0
0300
0300
3FF0
3FF0
003C
003C
3FFC
3FFC
F03C
F03C
3FFC
3FFC
ENDCHAR
STARTCHAR 00E2
ENCODING 226
SWIDTH 1000 0
DWIDTH 16 0
BBX 14 14 0 2
BITMAP
0FC0
0FC0
3CF0
3CF0
3FF0
3FF0
003C
003C
3FFC
3FFC
F03C
F03C
3FFC
3FFC
ENDCHAR
STARTCHAR 00E3
ENCODING 227
SWIDTH 1000 0
DWIDTH 16 0
BBX 14 14 0 2
BITMAP
0F30
0F30
33C0
33C0
3FF0
3FF0
003C
003C
3FFC
3FFC
F03C
F03C
3FFC
3FFC
ENDCHAR
STARTCHAR 00E4
ENCODING 228
SWIDTH 1000 0
DWIDTH 16 0
BBX 14 14 0 2
BITMAP
3CF0
3CF0
0000
0000
3FF0
3FF0
003C
003C
3FFC
3FFC
F03C
F03C
3FFC
3FFC
ENDCHAR
STARTCHAR 00E5
ENCODING 229
SWIDTH 1000 0
DWIDTH 16 0
BBX 14 14 0 2
BITMAP
0300
0300
0CC0
0CC0
3FF0
3FF0
003C
003C
3FFC
3FFC
F03C
F03C
3FFC
3FFC
ENDCHAR
STARTCHAR 00E6
ENCODING 230
SWIDTH 1000 0
DWIDTH 16 0
BBX 14 10 0 2
BITMAP
3FF0
3FF0
033C
033C
3FFC
3FFC
F300
F300
3FF0
3FF0
ENDCHAR
STARTCHAR 00E7
ENCODING 231
SWIDTH 1000 0
DWIDTH 16 0
BBX 14 12 0 0
BITMAP
3FFC
3FFC
F000
F000
F000
F000
3FFC
3FFC
00C0
00C0
0F00
0F00
ENDCHAR
STARTCHAR 00E8
ENCODING 232
SWIDTH 1000 0
DWIDTH 16 0
BBX 14 14 0 2
BITMAP
0C00
0C00
0300
0300
3FF0
3FF0
F03C
F03C
FFFC
FFFC
F000
F000
3FF0
3FF0
ENDCHAR
STARTCHAR 00E9
ENCODING 233
SWIDTH 1000 0
DWIDTH 16 0
BBX 14 14 0 2
BITMAP
00C0
00C0
0300
0300
3FF0
3FF0
F03C
F03C
FFFC
FFFC
F000
F000
3FF0
3FF0
ENDCHAR
STARTCHAR 00EA
ENCODING 234
SWIDTH 1000 0
DWIDTH 16 0
BBX 14 14 0 2
BITMAP
0FC0
0FC0
3CF0
3CF0
3FF0
3FF0
F03C
F03C
FFFC
FFFC
F000
F000
3FF0
3FF0
ENDCHAR
STARTCHAR 00EB
ENCODING 235
SWIDTH 1000 0
DWIDTH 16 0
BBX 14 14 0 2
BITMAP
3CF0
3CF0
0000
0000
3FF0
3FF0
F03C
F03C
FFFC
FFFC
F000
F000
3FF0
3FF0
ENDCHAR
STARTCHAR 00EC
ENCODING 236
SWIDTH 1000 0
DWIDTH 16 0
BBX 12 14 2 2
BITMAP
3000
3000
0C00
0C00
0000
0000
3F00
3F00
0F00
0F00
0F00
0F00
FFF0
FFF0
ENDCHAR
STARTCHAR 00ED
ENCODING 237
SWIDTH 1000 0
DWIDTH 16 0
BBX 12 14 2 2
BITMAP
0300
0300
0C00
0C00
0000
0000
3F00
3F00
0F00
0F00
0F00
0F00
FFF0
FFF0
ENDCHAR
STARTCHAR 00EE
ENCODING 238
SWIDTH 1000 0
DWIDTH 16 0
BBX 12 14 2 2
BITMAP
3F00
3F00
F3C0
F3C0
0000
0000
3F00
3F00
0F00
0F00
0F00
0F00
FFF0
FFF0
ENDCHAR
STARTCHAR 00EF
ENCODING 239
SWIDTH 1000 0
DWIDTH 16 0
BBX 12 14 2 2
BITMAP
F3C0
F3C0
0000
0000
3F00
3F00
0F00
0F00
0F00
0F00
0F00
0F00
FFF0
FFF0
ENDCHAR
STARTCHAR 00F0
ENCODING 240
SWIDTH 1000 0
DWIDTH 16 0
BBX 14 14 0 2
BITMAP
3C30
3C30
3FC0
3FC0
C3C0
C3C0
3FF0
3FF0
F03C
F03C
F03C
F03C
3FF0
3FF0
ENDCHAR
STARTCHAR 00F1
ENCODING 241
SWIDTH 1000 0
DWIDTH 16 0
BBX 14 14 0 2
BITMAP
0F30
0F30
33C0
33C0
FFF0
FFF0
F03C
F03C
F03C
F03C
F03C
F03C
F03C
F03C
ENDCHAR
STARTCHAR 00F2
ENCODING 242
SWIDTH 1000 0
DWIDTH 16 0
BBX 14 14 0 2
BITMAP
0C00
0C00
0300
0300
3FF0
3FF0
F03C
F03C
F03C
F03C
F03C
F03C
3FF0
3FF0
ENDCHAR
STARTCHAR 00F3
ENCODING 243
SWIDTH 1000 0
DWIDTH 16 0
BBX 14 14 0 2
BITMAP
00C0
00C0
0300
0300
3FF0
3FF0
F03C
F03C
F03C
F03C
F03C
F03C
3FF0
3FF0
ENDCHAR
STARTCHAR 00F4
ENCODING 244
SWIDTH 1000 0
DWIDTH 16 0
BBX 14 14 0 2
BITMAP
0FC0
0FC0
3CF0
3CF0
3FF0
3FF0
F03C
F03C
F03C
F03C
F03C
F03C
3FF0
3FF0
ENDCHAR
STARTCHAR 00F5
ENCODING 245
SWIDTH 1000 0
DWIDTH 16 0
BBX 14 14 0 2
BITMAP
0F30
0F30
33C0
33C0
3FF0
3FF0
F03C
F03C
F03C
F03C
F03C
F03C
3FF0
3FF0
ENDCHAR
STARTCHAR 00F6
ENCODING 246
SWIDTH 1000 0
DWIDTH 16 0
BBX 14 14 0 2
BITMAP
3CF0
3CF0
0000
0000
3FF0
3FF0
F03C
F03C
F03C
F03C
F03C
F03C
3FF0
3FF0
ENDCHAR
STARTCHAR 00F7
ENCODING 247
SWIDTH 1000 0
DWIDTH 16 0
BBX 12 10 2 4
BITMAP
0F00
0F00
0000
0000
FFF0
FFF0
0000
0000
0F00
0F00
ENDCHAR
STARTCHAR 00F8
ENCODING 248
SWIDTH 1000 0
DWIDTH 16 0
BBX 14 10 0 2
BITMAP
3FF0
3FF0
F0FC
F0FC
F33C
F33C
FC3C
FC3C
3FF0
3FF0
ENDCHAR
STARTCHAR 00F9
ENCODING 249
SWIDTH 1000 0
DWIDTH 16 0
BBX 14 14 0 2
BITMAP
0C00
0C00
0300
0300
F03C
F03C
F03C
F03C
F03C
F03C
F03C
F03C
3FFC
3FFC
ENDCHAR
STARTCHAR 00FA
ENCODING 250
SWIDTH 1000 0
DWIDTH 16 0
BBX 14 14 0 2
BITMAP
00C0
00C0
0300
0300
F03C
F03C
F03C
F03C
F03C
F03C
F03C
F03C
3FFC
3FFC
ENDCHAR
STARTCHAR 00FB
ENCODING 251
SWIDTH 1000 0
DWIDTH 16 0
BBX 14 14 0 2
BITMAP
0FC0
0FC0
3CF0
3CF0
0000
0000
F03C
F03C
F03C
F03C
F03C
F03C
3FFC
3FFC
ENDCHAR
STARTCHAR 00FC
ENCODING 252
SWIDTH 1000 0
DWIDTH 16 0
BBX 14 14 0 2
BITMAP
3CF0
3CF0
0000
0000
F03C
F03C
F03C
F03C
F03C
F03C
F03C
F03C
3FFC
3FFC
ENDCHAR
STARTCHAR 00FD
ENCODING 253
SWIDTH 1000 0
DWIDTH 16 0
BBX 14 16 0 0
BITMAP
00C0
00C0
0300
0300
F03C
F03C
F03C
F03C
F03C
F03C
3FFC
3FFC
003C
003C
3FF0
3FF0
ENDCHAR
STARTCHAR 00FE
ENCODING 254
SWIDTH 1000 0
DWIDTH 16 0
BBX 14 16 0 0
BITMAP
F000
F000
F000
F000
FFF0
FFF0
F03C
F03C
F03C
F03C
FFF0
FFF0
F000
F000
F000
F000
ENDCHAR
STARTCHAR 00FF
ENCODING 255
SWIDTH 1000 0
DWIDTH 16 0
BBX 14 16 0 0
BITMAP
3CF0
3CF0
0000
0000
F03C
F03C
F03C
F03C
F03C
F03C
3FFC
3FFC
003C
003C
3FF0
3FF0
ENDCHAR
STARTCHAR 0100
ENCODING 256
SWIDTH 1000 0
DWIDTH 16 0
BBX 14 14 0 2
BITMAP
3FF0
3FF0
0000
0000
0FC0
0FC0
3CF0
3CF0
F03C
F03C
FFFC
FFFC
F03C
F03C
ENDCHAR
STARTCHAR 0101
ENCODING 257
SWIDTH 1000 0
DWIDTH 16 0
BBX 14 14 0 2
BITMAP
3FF0
3FF0
0000
0000
3FF0
3FF0
003C
003C
3FFC
3FFC
F03C
F03C
3FFC
3FFC
ENDCHAR
STARTCHAR 0102
ENCODING 258
SWIDTH 1000 0
DWIDTH 16 0
BBX 14 14 0 2
BITMAP
3030
3030
0FC0
0FC0
0FC0
0FC0
3CF0
3CF0
F03C
F03C
FFFC
FFFC
F03C
F03C
ENDCHAR
STARTCHAR 0103
ENCODING 259
SWIDTH 1000 0
DWIDTH 16 0
BBX 14 14 0 2
BITMAP
3030
3030
0FC0
0FC0
3FF0
3FF0
003C
003C
3FFC
3FFC
F03C
F03C
3FFC
3FFC
ENDCHAR
STARTCHAR 0104
ENCODING 260
SWIDTH 1000 0
DWIDTH 16 0
BBX 14 16 0 0
BITMAP
0FC0
0FC0
3CF0
3CF0
F03C
F03C
FFFC
FFFC
F03C
F03C
0030
0030
00C0
00C0
003C
003C
ENDCHAR
STARTCHAR 0105
ENCODING 261
SWIDTH 1000 0
DWIDTH 16 0
BBX 14 16 0 0
BITMAP
3FF0
3FF0
003C
003C
3FFC
3FFC
F03C
F03C
3FFC
3FFC
0300
0300
0C00
0C00
03C0
03C0
ENDCHAR
STARTCHAR 0106
ENCODING 262
SWIDTH 1000 0
DWIDTH 16 0
BBX 14 14 0 2
BITMAP
00C0
00C0
0300
0300
0FF0
0FF0
3C3C
3C3C
F000
F000
3C3C
3C3C
0FF0
0FF0
ENDCHAR
STARTCHAR 0107
ENCODING 263
SWIDTH 1000 0
DWIDTH 16 0
BBX 14 14 0 2
BITMAP
00C0
00C0
0300
0300
3FFC
3FFC
F000
F000
F000
F000
F000
F000
3FFC
3FFC
ENDCHAR
STARTCHAR 0108
ENCODING 264
SWIDTH 1000 0
DWIDTH 16 0
BBX 14 14 0 2
BITMAP
0FC0
0FC0
3CF0
3CF0
0FF0
0FF0
3C3C
3C3C
F000
F000
3C3C
3C3C
0FF0
0FF0
ENDCHAR
STARTCHAR 0109
ENCODING 265
SWIDTH 1000 0
DWIDTH 16 0
BBX 14 14 0 2
BITMAP
0FC0
0FC0
3CF0
3CF0
3FFC
3FFC
F000
F000
F000
F000
F000
F000
3FFC
3FFC
ENDCHAR
STARTCHAR 010A
ENCODING 266
SWIDTH 1000 0
DWIDTH 16 0
BBX 14 14 0 2
BITMAP
03C0
03C0
0000
0000
0FF0
0FF0
3C3C
3C3C
F000
F000
3C3C
3C3C
0FF0
0FF0
ENDCHAR
STARTCHAR 010B
ENCODING 267
SWIDTH 1000 0
DWIDTH 16 0
BBX 14 14 0 2
BITMAP
03C0
03C0
0000
0000
3FFC
3FFC
F000
F000
F000
F000
F000
F000
3FFC
3FFC
ENDCHAR
STARTCHAR 010C
ENCODING 268
SWIDTH 1000 0
DWIDTH 16 0
BBX 14 14 0 2
BITMAP
3C3C
3C3C
0FF0
0FF0
0FF0
0FF0
3C3C
3C3C
F000
F000
3C3C
3C3C
0FF0
0FF0
ENDCHAR
STARTCHAR 010D
ENCODING 269
SWIDTH 1000 0
DWIDTH 16 0
BBX 14 14 0 2
BITMAP
3CF0
3CF0
0FC0
0FC0
3FFC
3FFC
F000
F000
F000
F000
F000
F000
3FFC
3FFC
ENDCHAR
STARTCHAR 010E
ENCODING 270
SWIDTH 1000 0
DWIDTH 16 0
BBX 14 14 0 2
BITMAP
3CF0
3CF0
0FC0
0FC0
FFC0
FFC0
F0F0
F0F0
F03C
F03C
F0F0
F0F0
FFC0
FFC0
ENDCHAR
STARTCHAR 010F
ENCODING 271
SWIDTH 1000 0
DWIDTH 16 0
BBX 16 14 0 2
BITMAP
03CF
03CF
03CF
03CF
3FCC
3FCC
F3C0
F3C0
F3C0
F3C0
F3C0
F3C0
3FC0
3FC0
ENDCHAR
STARTCHAR 0110
ENCODING 272
SWIDTH 1000 0
DWIDTH 16 0
BBX 14 14 0 2
BITMAP
3FC0
3FC0
3CF0
3CF0
3C3C
3C3C
FF3C
FF3C
3C3C
3C3C
3CF0
3CF0
3FC0
3FC0
ENDCHAR
STARTCHAR 0111
ENCODING 273
SWIDTH 1000 0
DWIDTH 16 0
BBX 14 14 0 2
BITMAP
00F0
00F0
03FC
03FC
3FF0
3FF0
F0F0
F0F0
F0F0
F0F0
F0F0
F0F0
3FF0
3FF0
ENDCHAR
STARTCHAR 0112
ENCODING 274
SWIDTH 1000 0
DWIDTH 16 0
BBX 14 14 0 2
BITMAP
3FF0
3FF0
0000
0000
FFFC
FFFC
F000
F000
FFF0
FFF0
F000
F000
FFFC
FFFC
ENDCHAR
STARTCHAR 0113
ENCODING 275
SWIDTH 1000 0
DWIDTH 16 0
BBX 14 14 0 2
BITMAP
3FF0
3FF0
0000
0000
3FF0
3FF0
F03C
F03C
FFFC
FFFC
F000
F000
3FF0
3FF0
ENDCHAR
STARTCHAR 0114
ENCODING 276
SWIDTH 1000 0
DWIDTH 16 0
BBX 14 14 0 2
BITMAP
3030
3030
0FC0
0FC0
FFFC
FFFC
F000
F000
FFF0
FFF0
F000
F000
FFFC
FFFC
ENDCHAR
STARTCHAR 0115
ENCODING 277
SWIDTH 1000 0
DWIDTH 16 0
BBX 14 14 0 2
BITMAP
3030
3030
0FC0
0FC0
3FF0
3FF0
F03C
F03C
FFFC
FFFC
F000
F000
3FF0
3FF0
ENDCHAR
STARTCHAR 0116
ENCODING 278
SWIDTH 1000 0
DWIDTH 16 0
BBX 14 14 0 2
BITMAP
03C0
03C0
0000
0000
FFFC
FFFC
F000
F000
FFF0
FFF0
F000
F000
FFFC
FFFC
ENDCHAR
STARTCHAR 0117
ENCODING 279
SWIDTH 1000 0
DWIDTH 16 0
BBX 14 14 0 2
BITMAP
03C0
03C0
0000
0000
3FF0
3FF0
F03C
F03C
FFFC
FFFC
F000
F000
3FF0
3FF0
ENDCHAR
STARTCHAR 0118
ENCODING 280
SWIDTH 1000 0
DWIDTH 16 0
BBX 14 16 0 0
BITMAP
FFFC
FFFC
F000
F000
FFF0
FFF0
F000
F000
FFFC
FFFC
0300
0300
0C00
0C00
03C0
03C0
ENDCHAR
STARTCHAR 0119
ENCODING 281
SWIDTH 1000 0
DWIDTH 16 0
BBX 14 16 0 0
BITMAP
3FF0
3FF0
F03C
F03C
FFFC
FFFC
F000
F000
3FF0
3FF0
0300
0300
0C00
0C00
03C0
03C0
ENDCHAR
STARTCHAR 011A
ENCODING 282
SWIDTH 1000 0
DWIDTH 16 0
BBX 14 14 0 2
BITMAP
3CF0
3CF0
0FC0
0FC0
FFFC
FFFC
F000
F000
FFF0
FFF0
F000
F000
FFFC
FFFC
ENDCHAR
STARTCHAR 011B
ENCODING 283
SWIDTH 1000 0
DWIDTH 16 0
BBX 14 14 0 2
BITMAP
3CF0
3CF0
0FC0
0FC0
3FF0
3FF0
F03C
F03C
FFFC
FFFC
F000
F000
3FF0
3FF0
ENDCHAR
STARTCHAR 011C
ENCODING 284
SWIDTH 1000 0
DWIDTH 16 0
BBX 14 14 0 2
BITMAP
0FC0
0FC0
3CF0
3CF0
3FFC
3FFC
F000
F000
F0FC
F0FC
F03C
F03C
3FFC
3FFC
ENDCHAR
STARTCHAR 011D
ENCODING 285
SWIDTH 1000 0
DWIDTH 16 0
BBX 14 16 0 0
BITMAP
0FC0
0FC0
3CF0
3CF0
3FFC
3FFC
F03C
F03C
F03C
F03C
3FFC
3FFC
003C
003C
3FF0
3FF0
ENDCHAR
STARTCHAR 011E
ENCODING 286
SWIDTH 1000 0
DWIDTH 16 0
BBX 14 14 0 2
BITMAP
3030
3030
0FC0
0FC0
3FFC
3FFC
F000
F000
F0FC
F0FC
F03C
F03C
3FFC
3FFC
ENDCHAR
STARTCHAR 011F
ENCODING 287
SWIDTH 1000 0
DWIDTH 16 0
BBX 14 16 0 0
BITMAP
3030
3030
0FC0
0FC0
3FFC
3FFC
F03C
F03C
F03C
F03C
3FFC
3FFC
003C
003C
3FF0
3FF0
ENDCHAR
STARTCHAR 0120
ENCODING 288
SWIDTH 1000 0
DWIDTH 16 0
BBX 14 14 0 2
BITMAP
03C0
03C0
0000
0000
3FFC
3FFC
F000
F000
F0FC
F0FC
F03C
F03C
3FFC
3FFC
ENDCHAR
STARTCHAR 0121
ENCODING 289
SWIDTH 1000 0
DWIDTH 16 0
BBX 14 16 0 0
BITMAP
03C0
03C0
0000
0000
3FFC
3FFC
F03C
F03C
F03C
F03C
3FFC
3FFC
003C
003C
3FF0
3FF0
ENDCHAR
STARTCHAR 0122
ENCODING 290
SWIDTH 1000 0
DWIDTH 16 0
BBX 14 16 0 0
BITMAP
0FFC
0FFC
3C00
3C00
F000
F000
F0FC
F0FC
3C3C
3C3C
0FFC
0FFC
03C0
03C0
0F00
0F00
ENDCHAR
STARTCHAR 0123
ENCODING 291
SWIDTH 1000 0
DWIDTH 16 0
BBX 14 16 0 0
BITMAP
03C0
03C0
0F00
0F00
3FFC
3FFC
F03C
F03C
F03C
F03C
3FFC
3FFC
003C
003C
3FF0
3FF0
ENDCHAR
STARTCHAR 0124
ENCODING 292
SWIDTH 1000 0
DWIDTH 16 0
BBX 14 14 0 2
BITMAP
0FC0
0FC0
FCFC
FCFC
F03C
F03C
F03C
F03C
FFFC
FFFC
F03C
F03C
F03C
F03C
ENDCHAR
STARTCHAR 0125
ENCODING 293
SWIDTH 1000 0
DWIDTH 16 0
BBX 14 14 0 2
BITMAP
0FC0
0FC0
FCF0
FCF0
F000
F000
FFF0
FFF0
F03C
F03C
F03C
F03C
F03C
F03C
ENDCHAR
STARTCHAR 0126
ENCODING 294
SWIDTH 1000 0
DWIDTH 16 0
BBX 14 14 0 2
BITMAP
F03C
F03C
FFFC
FFFC
F03C
F03C
FFFC
FFFC
F03C
F03C
F03C
F03C
F03C
F03C
ENDCHAR
STARTCHAR 0127
ENCODING 295
SWIDTH 1000 0
DWIDTH 16 0
BBX 14 14 0 2
BITMAP
3C00
3C00
FFC0
FFC0
3C00
3C00
3FF0
3FF0
3C3C
3C3C
3C3C
3C3C
3C3C
3C3C
ENDCHAR
STARTCHAR 0128
ENCODING 296
SWIDTH 1000 0
DWIDTH 16 0
BBX 12 14 2 2
BITMAP
3C30
3C30
C3C0
C3C0
FFF0
FFF0
0F00
0F00
0F00
0F00
0F00
0F00
FFF0
FFF0
ENDCHAR
STARTCHAR 0129
ENCODING 297
SWIDTH 1000 0
DWIDTH 16 0
BBX 12 14 2 2
BITMAP
3C30
3C30
C3C0
C3C0
0000
0000
3F00
3F00
0F00
0F00
0F00
0F00
FFF0
FFF0
ENDCHAR
STARTCHAR 012A
ENCODING 298
SWIDTH 1000 0
DWIDTH 16 0
BBX 12 14 2 2
BITMAP
FFF0
FFF0
0000
0000
FFF0
FFF0
0F00
0F00
0F00
0F00
0F00
0F00
FFF0
FFF0
ENDCHAR
STARTCHAR 012B
ENCODING 299
SWIDTH 1000 0
DWIDTH 16 0
BBX 12 14 2 2
BITMAP
FFC0
FFC0
0000
0000
3F00
3F00
0F00
0F00
0F00
0F00
0F00
0F00
FFF0
FFF0
ENDCHAR
STARTCHAR 012C
ENCODING 300
SWIDTH 1000 0
DWIDTH 16 0
BBX 12 14 2 2
BITMAP
30C0
30C0
0F00
0F00
FFF0
FFF0
0F00
0F00
0F00
0F00
0F00
0F00
FFF0
FFF0
ENDCHAR
STARTCHAR 012D
ENCODING 301
SWIDTH 1000 0
DWIDTH 16 0
BBX 12 14 2 2
BITMAP
C0C0
C0C0
3F00
3F00
0000
0000
3F00
3F00
0F00
0F00
0F00
0F00
FFF0
FFF0
ENDCHAR
STARTCHAR 012E
ENCODING 302
SWIDTH 1000 0
DWIDTH 16 0
BBX 12 16 2 0
BITMAP
FFF0
FFF0
0F00
0F00
0F00
0F00
0F00
0F00
FFF0
FFF0
0C00
0C00
3000
3000
0F00
0F00
ENDCHAR
STARTCHAR 012F
ENCODING 303
SWIDTH 1000 0
DWIDTH 16 0
BBX 12 16 2 0
BITMAP
0F00
0F00
0000
0000
3F00
3F00
0F00
0F00
FFF0
FFF0
0C00
0C00
3000
3000
0F00
0F00
ENDCHAR
STARTCHAR 0130
ENCODING 304
SWIDTH 1000 0
DWIDTH 16 0
BBX 12 14 2 2
BITMAP
0F00
0F00
0000
0000
FFF0
FFF0
0F00
0F00
0F00
0F00
0F00
0F00
FFF0
FFF0
ENDCHAR
STARTCHAR 0131
ENCODING 305
SWIDTH 1000 0
DWIDTH 16 0
BBX 12 10 2 2
BITMAP
3F00
3F00
0F00
0F00
0F00
0F00
0F00
0F00
FFF0
FFF0
ENDCHAR
STARTCHAR 0132
ENCODING 306
SWIDTH 1000 0
DWIDTH 16 0
BBX 14 14 0 2
BITMAP
FF3C
FF3C
3C3C
3C3C
3C3C
3C3C
3C3C
3C3C
FF3C
FF3C
003C
003C
3FF0
3FF0
ENDCHAR
STARTCHAR 0133
ENCODING 307
SWIDTH 1000 0
DWIDTH 16 0
BBX 14 16 0 0
BITMAP
3C3C
3C3C
0000
0000
FCFC
FCFC
3C3C
3C3C
3C3C
3C3C
3C3C
3C3C
003C
003C
0FF0
0FF0
ENDCHAR
STARTCHAR 0134
ENCODING 308
SWIDTH 1000 0
DWIDTH 16 0
BBX 14 14 0 2
BITMAP
03F0
03F0
0F3C
0F3C
003C
003C
003C
003C
003C
003C
F03C
F03C
3FF0
3FF0
ENDCHAR
STARTCHAR 0135
ENCODING 309
SWIDTH 1000 0
DWIDTH 16 0
BBX 12 16 2 0
BITMAP
0FC0
0FC0
3CF0
3CF0
0000
0000
0FC0
0FC0
03C0
03C0
03C0
03C0
03C0
03C0
FF00
FF00
ENDCHAR
STARTCHAR 0136
ENCODING 310
SWIDTH 1000 0
DWIDTH 16 0
BBX 14 16 0 0
BITMAP
F0F0
F0F0
F3C0
F3C0
FF00
FF00
FFC0
FFC0
F3F0
F3F0
F0FC
F0FC
0F00
0F00
3C00
3C00
ENDCHAR
STARTCHAR 0137
ENCODING 311
SWIDTH 1000 0
DWIDTH 16 0
BBX 14 16 0 0
BITMAP
F000
F000
F03C
F03C
F0F0
F0F0
FFC0
FFC0
F0F0
F0F0
F03C
F03C
0F00
0F00
3C00
3C00
ENDCHAR
STARTCHAR 0138
ENCODING 312
SWIDTH 1000 0
DWIDTH 16 0
BBX 14 10 0 2
BITMAP
F03C
F03C
F0F0
F0F0
FFC0
FFC0
F0F0
F0F0
F03C
F03C
ENDCHAR
STARTCHAR 0139
ENCODING 313
SWIDTH 1000 0
DWIDTH 16 0
BBX 12 14 2 2
BITMAP
0300
0300
FC00
FC00
F000
F000
F000
F000
F000
F000
F000
F000
FFF0
FFF0
ENDCHAR
STARTCHAR 013A
ENCODING 314
SWIDTH 1000 0
DWIDTH 16 0
BBX 12 14 0 2
BITMAP
0300
0300
0C00
0C00
3F00
3F00
0F00
0F00
0F00
0F00
0F00
0F00
FFF0
FFF0
ENDCHAR
STARTCHAR 013B
ENCODING 315
SWIDTH 1000 0
DWIDTH 16 0
BBX 12 16 2 0
BITMAP
F000
F000
F000
F000
F000
F000
F000
F000
F000
F000
FFF0
FFF0
0F00
0F00
3C00
3C00
ENDCHAR
STARTCHAR 013C
ENCODING 316
SWIDTH 1000 0
DWIDTH 16 0
BBX 12 16 2 0
BITMAP
3F00
3F00
0F00
0F00
0F00
0F00
0F00
0F00
0F00
0F00
FFF0
FFF0
0F00
0F00
3C00
3C00
ENDCHAR
STARTCHAR 013D
ENCODING 317
SWIDTH 1000 0
DWIDTH 16 0
BBX 12 14 2 2
BITMAP
F0F0
F0F0
F0F0
F0F0
F0C0
F0C0
F000
F000
F000
F000
F000
F000
FFF0
FFF0
ENDCHAR
STARTCHAR 013E
ENCODING 318
SWIDTH 1000 0
DWIDTH 16 0
BBX 14 14 0 2
BITMAP
3F3C
3F3C
0F3C
0F3C
0F30
0F30
0F00
0F00
0F00
0F00
0F00
0F00
FFF0
FFF0
ENDCHAR
STARTCHAR 013F
ENCODING 319
SWIDTH 1000 0
DWIDTH 16 0
BBX 12 14 2 2
BITMAP
F000
F000
F000
F000
F3C0
F3C0
F3C0
F3C0
F000
F000
F000
F000
FFF0
FFF0
ENDCHAR
STARTCHAR 0140
ENCODING 320
SWIDTH 1000 0
DWIDTH 16 0
BBX 14 14 0 2
BITMAP
3F00
3F00
0F00
0F00
0F3C
0F3C
0F3C
0F3C
0F00
0F00
0F00
0F00
FFF0
FFF0
ENDCHAR
STARTCHAR 0141
ENCODING 321
SWIDTH 1000 0
DWIDTH 16 0
BBX 14 14 0 2
BITMAP
3C00
3C00
3C00
3C00
3F00
3F00
FC00
FC00
3C00
3C00
3C00
3C00
3FFC
3FFC
ENDCHAR
STARTCHAR 0142
ENCODING 322
SWIDTH 1000 0
DWIDTH 16 0
BBX 12 14 2 2
BITMAP
3F00
3F00
0F00
0F00
0FC0
0FC0
3F00
3F00
0F00
0F00
0F00
0F00
FFF0
FFF0
ENDCHAR
STARTCHAR 0143
ENCODING 323
SWIDTH 1000 0
DWIDTH 16 0
BBX 14 14 0 2
BITMAP
00C0
00C0
0300
0300
FC3C
FC3C
FF3C
FF3C
FFFC
FFFC
F3FC
F3FC
F0FC
F0FC
ENDCHAR
STARTCHAR 0144
ENCODING 324
SWIDTH 1000 0
DWIDTH 16 0
BBX 14 14 0 2
BITMAP
00C0
00C0
0300
0300
FFF0
FFF0
F03C
F03C
F03C
F03C
F03C
F03C
F03C
F03C
ENDCHAR
STARTCHAR 0145
ENCODING 325
SWIDTH 1000 0
DWIDTH 16 0
BBX 14 16 0 0
BITMAP
FC3C
FC3C
FF3C
FF3C
FFFC
FFFC
F3FC
F3FC
F0FC
F0FC
F03C
F03C
03C0
03C0
0F00
0F00
ENDCHAR
STARTCHAR 0146
ENCODING 326
SWIDTH 1000 0
DWIDTH 16 0
BBX 14 14 0 0
BITMAP
FFF0
FFF0
F03C
F03C
F03C
F03C
F03C
F03C
F03C
F03C
03C0
03C0
0F00
0F00
ENDCHAR
STARTCHAR 0147
ENCODING 327
SWIDTH 1000 0
DWIDTH 16 0
BBX 14 14 0 2
BITMAP
3CF0
3CF0
0FC0
0FC0
FC3C
FC3C
FF3C
FF3C
FFFC
FFFC
F3FC
F3FC
F0FC
F0FC
ENDCHAR
STARTCHAR 0148
ENCODING 328
SWIDTH 1000 0
DWIDTH 16 0
BBX 14 14 0 2
BITMAP
3CF0
3CF0
0FC0
0FC0
FFF0
FFF0
F03C
F03C
F03C
F03C
F03C
F03C
F03C
F03C
ENDCHAR
STARTCHAR 014A
ENCODING 330
SWIDTH 1000 0
DWIDTH 16 0
BBX 14 16 0 0
BITMAP
FC3C
FC3C
FF3C
FF3C
FFFC
FFFC
F3FC
F3FC
F0FC
F0FC
F03C
F03C
003C
003C
0FF0
0FF0
ENDCHAR
STARTCHAR 014B
ENCODING 331
SWIDTH 1000 0
DWIDTH 16 0
BBX 14 14 0 0
BITMAP
FFF0
FFF0
F03C
F03C
F03C
F03C
F03C
F03C
F03C
F03C
003C
003C
0FF0
0FF0
ENDCHAR
STARTCHAR 014C
ENCODING 332
SWIDTH 1000 0
DWIDTH 16 0
BBX 14 14 0 2
BITMAP
3FF0
3FF0
0000
0000
3FF0
3FF0
F03C
F03C
F03C
F03C
F03C
F03C
3FF0
3FF0
ENDCHAR
STARTCHAR 014D
ENCODING 333
SWIDTH 1000 0
DWIDTH 16 0
BBX 14 14 0 2
BITMAP
3FF0
3FF0
0000
0000
3FF0
3FF0
F03C
F03C
F03C
F03C
F03C
F03C
3FF0
3FF0
ENDCHAR
STARTCHAR 014E
ENCODING 334
SWIDTH 1000 0
DWIDTH 16 0
BBX 14 14 0 2
BITMAP
3030
3030
0FC0
0FC0
3FF0
3FF0
F03C
F03C
F03C
F03C
F03C
F03C
3FF0
3FF0
ENDCHAR
STARTCHAR 014F
ENCODING 335
SWIDTH 1000 0
DWIDTH 16 0
BBX 14 14 0 2
BITMAP
3030
3030
0FC0
0FC0
3FF0
3FF0
F03C
F03C
F03C
F03C
F03C
F03C
3FF0
3FF0
ENDCHAR
STARTCHAR 0150
ENCODING 336
SWIDTH 1000 0
DWIDTH 16 0
BBX 14 14 0 2
BITMAP
0C30
0C30
30C0
30C0
3FF0
3FF0
F03C
F03C
F03C
F03C
F03C
F03C
3FF0
3FF0
ENDCHAR
STARTCHAR 0151
ENCODING 337
SWIDTH 1000 0
DWIDTH 16 0
BBX 14 14 0 2
BITMAP
0C30
0C30
30C0
30C0
3FF0
3FF0
F03C
F03C
F03C
F03C
F03C
F03C
3FF0
3FF0
ENDCHAR
STARTCHAR 0152
ENCODING 338
SWIDTH 1000 0
DWIDTH 16 0
BBX 14 14 0 2
BITMAP
3FFC
3FFC
F3C0
F3C0
F3C0
F3C0
F3FC
F3FC
F3C0
F3C0
F3C0
F3C0
3FFC
3FFC
ENDCHAR
STARTCHAR 0153
ENCODING 339
SWIDTH 1000 0
DWIDTH 16 0
BBX 14 10 0 2
BITMAP
3FF0
3FF0
F33C
F33C
F3FC
F3FC
F300
F300
3FF0
3FF0
ENDCHAR
STARTCHAR 0154
ENCODING 340
SWIDTH 1000 0
DWIDTH 16 0
BBX 14 14 0 2
BITMAP
00C0
00C0
0300
0300
FFF0
FFF0
F0FC
F0FC
FFC0
FFC0
F3F0
F3F0
F0FC
F0FC
ENDCHAR
STARTCHAR 0155
ENCODING 341
SWIDTH 1000 0
DWIDTH 16 0
BBX 12 14 2 2
BITMAP
0300
0300
0C00
0C00
F3F0
F3F0
FC00
FC00
F000
F000
F000
F000
F000
F000
ENDCHAR
STARTCHAR 0156
ENCODING 342
SWIDTH 1000 0
DWIDTH 16 0
BBX 14 16 0 0
BITMAP
FFF0
FFF0
F03C
F03C
F0FC
F0FC
FFC0
FFC0
F3F0
F3F0
F0FC
F0FC
03C0
03C0
0F00
0F00
ENDCHAR
STARTCHAR 0157
ENCODING 343
SWIDTH 1000 0
DWIDTH 16 0
BBX 12 14 2 0
BITMAP
F3F0
F3F0
FC00
FC00
F000
F000
F000
F000
F000
F000
3C00
3C00
F000
F000
ENDCHAR
STARTCHAR 0158
ENCODING 344
SWIDTH 1000 0
DWIDTH 16 0
BBX 14 14 0 2
BITMAP
0CC0
0CC0
0300
0300
FFF0
FFF0
F0FC
F0FC
FFC0
FFC0
F3F0
F3F0
F0FC
F0FC
ENDCHAR
STARTCHAR 0159
ENCODING 345
SWIDTH 1000 0
DWIDTH 16 0
BBX 12 14 2 2
BITMAP
3CF0
3CF0
0FC0
0FC0
F3F0
F3F0
FC00
FC00
F000
F000
F000
F000
F000
F000
ENDCHAR
STARTCHAR 015A
ENCODING 346
SWIDTH 1000 0
DWIDTH 16 0
BBX 14 14 0 2
BITMAP
00C0
00C0
0300
0300
3FF0
3FF0
F000
F000
3FF0
3FF0
003C
003C
FFF0
FFF0
ENDCHAR
STARTCHAR 015B
ENCODING 347
SWIDTH 1000 0
DWIDTH 16 0
BBX 14 14 0 2
BITMAP
00C0
00C0
0300
0300
3FF0
3FF0
F000
F000
3FF0
3FF0
003C
003C
FFF0
FFF0
ENDCHAR
STARTCHAR 015C
ENCODING 348
SWIDTH 1000 0
DWIDTH 16 0
BBX 14 14 0 2
BITMAP
0FC0
0FC0
3CF0
3CF0
3FF0
3FF0
F000
F000
3FF0
3FF0
003C
003C
FFF0
FFF0
ENDCHAR
STARTCHAR 015D
ENCODING 349
SWIDTH 1000 0
DWIDTH 16 0
BBX 14 14 0 2
BITMAP
0FC0
0FC0
3CF0
3CF0
3FF0
3FF0
F000
F000
3FF0
3FF0
003C
003C
FFF0
FFF0
ENDCHAR
STARTCHAR 015E
ENCODING 350
SWIDTH 1000 0
DWIDTH 16 0
BBX 14 16 0 0
BITMAP
3FF0
3FF0
F000
F000
3FF0
3FF0
003C
003C
F03C
F03C
3FF0
3FF0
00C0
00C0
0F00
0F00
ENDCHAR
STARTCHAR 015F
ENCODING 351
SWIDTH 1000 0
DWIDTH 16 0
BBX 14 14 0 0
BITMAP
3FF0
3FF0
F000
F000
3FF0
3FF0
003C
003C
FFF0
FFF0
00C0
00C0
0F00
0F00
ENDCHAR
STARTCHAR 0160
ENCODING 352
SWIDTH 1000 0
DWIDTH 16 0
BBX 14 14 0 2
BITMAP
3CF0
3CF0
0FC0
0FC0
3FF0
3FF0
F000
F000
3FF0
3FF0
003C
003C
FFF0
FFF0
ENDCHAR
STARTCHAR 0161
ENCODING 353
SWIDTH 1000 0
DWIDTH 16 0
BBX 14 14 0 2
BITMAP
3CF0
3CF0
0FC0
0FC0
3FF0
3FF0
F000
F000
3FF0
3FF0
003C
003C
FFF0
FFF0
ENDCHAR
STARTCHAR 0164
ENCODING 356
SWIDTH 1000 0
DWIDTH 16 0
BBX 12 14 2 2
BITMAP
30C0
30C0
0F00
0F00
FFF0
FFF0
0F00
0F00
0F00
0F00
0F00
0F00
0F00
0F00
ENDCHAR
STARTCHAR 0165
ENCODING 357
SWIDTH 1000 0
DWIDTH 16 0
BBX 12 14 2 2
BITMAP
30C0
30C0
0F00
0F00
0F00
0F00
FFF0
FFF0
0F00
0F00
0F00
0F00
0F00
0F00
ENDCHAR
STARTCHAR 0166
ENCODING 358
SWIDTH 1000 0
DWIDTH 16 0
BBX 12 14 2 2
BITMAP
FFF0
FFF0
0F00
0F00
0F00
0F00
0FC0
0FC0
3F00
3F00
0F00
0F00
0F00
0F00
ENDCHAR
STARTCHAR 0167
ENCODING 359
SWIDTH 1000 0
DWIDTH 16 0
BBX 12 14 2 2
BITMAP
0F00
0F00
0F00
0F00
FFF0
FFF0
0F00
0F00
0FC0
0FC0
3F00
3F00
0F00
0F00
ENDCHAR
STARTCHAR 0168
ENCODING 360
SWIDTH 1000 0
DWIDTH 16 0
BBX 14 14 0 2
BITMAP
0F30
0F30
33C0
33C0
F03C
F03C
F03C
F03C
F03C
F03C
F03C
F03C
3FF0
3FF0
ENDCHAR
STARTCHAR 0169
ENCODING 361
SWIDTH 1000 0
DWIDTH 16 0
BBX 14 14 0 2
BITMAP
0F30
0F30
33C0
33C0
F03C
F03C
F03C
F03C
F03C
F03C
F03C
F03C
3FFC
3FFC
ENDCHAR
STARTCHAR 016A
ENCODING 362
SWIDTH 1000 0
DWIDTH 16 0
BBX 14 14 0 2
BITMAP
3FF0
3FF0
0000
0000
F03C
F03C
F03C
F03C
F03C
F03C
F03C
F03C
3FF0
3FF0
ENDCHAR
STARTCHAR 016B
ENCODING 363
SWIDTH 1000 0
DWIDTH 16 0
BBX 14 14 0 2
BITMAP
3FF0
3FF0
0000
0000
F03C
F03C
F03C
F03C
F03C
F03C
F03C
F03C
3FFC
3FFC
ENDCHAR
STARTCHAR 016C
ENCODING 364
SWIDTH 1000 0
DWIDTH 16 0
BBX 14 14 0 2
BITMAP
3030
3030
0FC0
0FC0
F03C
F03C
F03C
F03C
F03C
F03C
F03C
F03C
3FF0
3FF0
ENDCHAR
STARTCHAR 016D
ENCODING 365
SWIDTH 1000 0
DWIDTH 16 0
BBX 14 14 0 2
BITMAP
3030
3030
0FC0
0FC0
F03C
F03C
F03C
F03C
F03C
F03C
F03C
F03C
3FFC
3FFC
ENDCHAR
STARTCHAR 016E
ENCODING 366
SWIDTH 1000 0
DWIDTH 16 0
BBX 14 14 0 2
BITMAP
0FC0
0FC0
3CF0
3CF0
CFCC
CFCC
F03C
F03C
F03C
F03C
F03C
F03C
3FF0
3FF0
ENDCHAR
STARTCHAR 016F
ENCODING 367
SWIDTH 1000 0
DWIDTH 16 0
BBX 14 14 0 2
BITMAP
0FC0
0FC0
3CF0
3CF0
CFCC
CFCC
F03C
F03C
F03C
F03C
F03C
F03C
3FFC
3FFC
ENDCHAR
STARTCHAR 0170
ENCODING 368
SWIDTH 1000 0
DWIDTH 16 0
BBX 14 14 0 2
BITMAP
0C30
0C30
30C0
30C0
F03C
F03C
F03C
F03C
F03C
F03C
F03C
F03C
3FF0
3FF0
ENDCHAR
STARTCHAR 0171
ENCODING 369
SWIDTH 1000 0
DWIDTH 16 0
BBX 14 14 0 2
BITMAP
0C30
0C30
30C0
30C0
F03C
F03C
F03C
F03C
F03C
F03C
F03C
F03C
3FFC
3FFC
ENDCHAR
STARTCHAR 0172
ENCODING 370
SWIDTH 1000 0
DWIDTH 16 0
BBX 14 16 0 0
BITMAP
F03C
F03C
F03C
F03C
F03C
F03C
F03C
F03C
3FF0
3FF0
0300
0300
0C00
0C00
03C0
03C0
ENDCHAR
STARTCHAR 0173
ENCODING 371
SWIDTH 1000 0
DWIDTH 16 0
BBX 14 16 0 0
BITMAP
F03C
F03C
F03C
F03C
F03C
F03C
F03C
F03C
3FFC
3FFC
0300
0300
0C00
0C00
03C0
03C0
ENDCHAR
STARTCHAR 0174
ENCODING 372
SWIDTH 1000 0
DWIDTH 16 0
BBX 14 14 0 2
BITMAP
0FC0
0FC0
3CF0
3CF0
F03C
F03C
F33C
F33C
FFFC
FFFC
FFFC
FFFC
FCFC
FCFC
ENDCHAR
STARTCHAR 0175
ENCODING 373
SWIDTH 1000 0
DWIDTH 16 0
BBX 14 14 0 2
BITMAP
0FC0
0FC0
3CF0
3CF0
0000
0000
F33C
F33C
F33C
F33C
F33C
F33C
3CF0
3CF0
ENDCHAR
STARTCHAR 0176
ENCODING 374
SWIDTH 1000 0
DWIDTH 16 0
BBX 12 14 2 2
BITMAP
0F00
0F00
30C0
30C0
F0F0
F0F0
F0F0
F0F0
3FC0
3FC0
0F00
0F00
0F00
0F00
ENDCHAR
STARTCHAR 0177
ENCODING 375
SWIDTH 1000 0
DWIDTH 16 0
BBX 14 16 0 0
BITMAP
0FC0
0FC0
3CF0
3CF0
0000
0000
F03C
F03C
F03C
F03C
3FFC
3FFC
003C
003C
3FF0
3FF0
ENDCHAR
STARTCHAR 0178
ENCODING 376
SWIDTH 1000 0
DWIDTH 16 0
BBX 12 14 2 2
BITMAP
F0F0
F0F0
0000
0000
F0F0
F0F0
F0F0
F0F0
3FC0
3FC0
0F00
0F00
0F00
0F00
ENDCHAR
STARTCHAR 0179
ENCODING 377
SWIDTH 1000 0
DWIDTH 16 0
BBX 14 14 0 2
BITMAP
00C0
00C0
0300
0300
FFFC
FFFC
03F0
03F0
0FC0
0FC0
3F00
3F00
FFFC
FFFC
ENDCHAR
STARTCHAR 017A
ENCODING 378
SWIDTH 1000 0
DWIDTH 16 0
BBX 14 14 0 2
BITMAP
00C0
00C0
0300
0300
FFFC
FFFC
03F0
03F0
0FC0
0FC0
3F00
3F00
FFFC
FFFC
ENDCHAR
STARTCHAR 017B
ENCODING 379
SWIDTH 1000 0
DWIDTH 16 0
BBX 14 14 0 2
BITMAP
03C0
03C0
0000
0000
FFFC
FFFC
03F0
03F0
0FC0
0FC0
3F00
3F00
FFFC
FFFC
ENDCHAR
STARTCHAR 017C
ENCODING 380
SWIDTH 1000 0
DWIDTH 16 0
BBX 14 14 0 2
BITMAP
03C0
03C0
0000
0000
FFFC
FFFC
03F0
03F0
0FC0
0FC0
3F00
3F00
FFFC
FFFC
ENDCHAR
STARTCHAR 017D
ENCODING 381
SWIDTH 1000 0
DWIDTH 16 0
BBX 14 14 0 2
BITMAP
3CF0
3CF0
0FC0
0FC0
FFFC
FFFC
03F0
03F0
0FC0
0FC0
3F00
3F00
FFFC
FFFC
ENDCHAR
STARTCHAR 017E
ENCODING 382
SWIDTH 1000 0
DWIDTH 16 0
BBX 14 14 0 2
BITMAP
3CF0
3CF0
0FC0
0FC0
FFFC
FFFC
03F0
03F0
0FC0
0FC0
3F00
3F00
FFFC
FFFC
ENDCHAR
STARTCHAR 017F
ENCODING 383
SWIDTH 1000 0
DWIDTH 16 0
BBX 8 14 6 2
BITMAP
3F
3F
F0
F0
F0
F0
F0
F0
F0
F0
F0
F0
F0
F0
ENDCHAR
STARTCHAR 0192
ENCODING 402
SWIDTH 1000 0
DWIDTH 16 0
BBX 12 14 2 2
BITMAP
03F0
03F0
0F00
0F00
FFF0
FFF0
0F00
0F00
0F00
0F00
0F00
0F00
FC00
FC00
ENDCHAR
STARTCHAR 021A
ENCODING 538
SWIDTH 1000 0
DWIDTH 16 0
BBX 12 16 2 0
BITMAP
FFF0
FFF0
0F00
0F00
0F00
0F00
0F00
0F00
0F00
0F00
0F00
0F00
0300
0300
3C00
3C00
ENDCHAR
STARTCHAR 021B
ENCODING 539
SWIDTH 1000 0
DWIDTH 16 0
BBX 12 16 2 0
BITMAP
0F00
0F00
0F00
0F00
FFF0
FFF0
0F00
0F00
0F00
0F00
0F00
0F00
0300
0300
3C00
3C00
ENDCHAR
STARTCHAR 02BC
ENCODING 700
SWIDTH 1000 0
DWIDTH 16 0
BBX 4 6 0 10
BITMAP
F0
F0
F0
F0
C0
C0
ENDCHAR
STARTCHAR 02C6
ENCODING 710
SWIDTH 1000 0
DWIDTH 16 0
BBX 10 4 2 12
BITMAP
3F00
3F00
F3C0
F3C0
ENDCHAR
STARTCHAR 02C7
ENCODING 711
SWIDTH 1000 0
DWIDTH 16 0
BBX 10 4 2 12
BITMAP
F3C0
F3C0
3F00
3F00
ENDCHAR
STARTCHAR 02C9
ENCODING 713
SWIDTH 1000 0
DWIDTH 16 0
BBX 10 2 2 14
BITMAP
FFC0
FFC0
ENDCHAR
STARTCHAR 02CA
ENCODING 714
SWIDTH 1000 0
DWIDTH 16 0
BBX 4 4 6 12
BITMAP
30
30
C0
C0
ENDCHAR
STARTCHAR 02CB
ENCODING 715
SWIDTH 1000 0
DWIDTH 16 0
BBX 4 4 6 12
BITMAP
C0
C0
30
30
ENDCHAR
STARTCHAR 02D7
ENCODING 727
SWIDTH 1000 0
DWIDTH 16 0
BBX 10 2 2 8
BITMAP
FFC0
FFC0
ENDCHAR
STARTCHAR 02D8
ENCODING 728
SWIDTH 1000 0
DWIDTH 16 0
BBX 10 4 2 12
BITMAP
C0C0
C0C0
3F00
3F00
ENDCHAR
STARTCHAR 02D9
ENCODING 729
SWIDTH 1000 0
DWIDTH 16 0
BBX 4 2 6 14
BITMAP
F0
F0
ENDCHAR
STARTCHAR 02DA
ENCODING 730
SWIDTH 1000 0
DWIDTH 16 0
BBX 10 6 2 10
BITMAP
3F00
3F00
F3C0
F3C0
3F00
3F00
ENDCHAR
STARTCHAR 02DB
ENCODING 731
SWIDTH 1000 0
DWIDTH 16 0
BBX 6 6 4 0
BITMAP
30
30
C0
C0
3C
3C
ENDCHAR
STARTCHAR 02DC
ENCODING 732
SWIDTH 1000 0
DWIDTH 16 0
BBX 10 4 2 12
BITMAP
3CC0
3CC0
CF00
CF00
ENDCHAR
STARTCHAR 02DD
ENCODING 733
SWIDTH 1000 0
DWIDTH 16 0
BBX 10 4 2 12
BITMAP
30C0
30C0
C300
C300
ENDCHAR
STARTCHAR 0300
ENCODING 768
SWIDTH 0 0
DWIDTH 0 0
BBX 4 4 -11 12
BITMAP
C0
C0
30
30
ENDCHAR
STARTCHAR 0301
ENCODING 769
SWIDTH 0 0
DWIDTH 0 0
BBX 4 4 -10 12
BITMAP
30
30
C0
C0
ENDCHAR
STARTCHAR 0326
ENCODING 806
SWIDTH 0 0
DWIDTH 0 0
BBX 6 6 -12 -6
BITMAP
3C
3C
3C
3C
F0
F0
ENDCHAR
STARTCHAR 0335
ENCODING 821
SWIDTH 0 0
DWIDTH 0 0
BBX 8 2 -12 6
BITMAP
FF
FF
ENDCHAR
STARTCHAR 037A
ENCODING 890
SWIDTH 1000 0
DWIDTH 16 0
BBX 6 4 6 0
BITMAP
C0
C0
3C
3C
ENDCHAR
STARTCHAR 037E
ENCODING 894
SWIDTH 1000 0
DWIDTH 16 0
BBX 6 12 2 2
BITMAP
3C
3C
3C
3C
00
00
3C
3C
3C
3C
F0
F0
ENDCHAR
STARTCHAR 0384
ENCODING 900
SWIDTH 1000 0
DWIDTH 16 0
BBX 4 4 6 12
BITMAP
30
30
C0
C0
ENDCHAR
STARTCHAR 0385
ENCODING 901
SWIDTH 1000 0
DWIDTH 16 0
BBX 12 4 2 12
BITMAP
C330
C330
0C00
0C00
ENDCHAR
STARTCHAR 0386
ENCODING 902
SWIDTH 1000 0
DWIDTH 16 0
BBX 14 14 0 2
BITMAP
33C0
33C0
CFF0
CFF0
3C3C
3C3C
3C3C
3C3C
3FFC
3FFC
3C3C
3C3C
3C3C
3C3C
ENDCHAR
STARTCHAR 0387
ENCODING 903
SWIDTH 1000 0
DWIDTH 16 0
BBX 4 4 4 6
BITMAP
F0
F0
F0
F0
ENDCHAR
STARTCHAR 0388
ENCODING 904
SWIDTH 1000 0
DWIDTH 16 0
BBX 16 14 0 2
BITMAP
3FFF
3FFF
CF00
CF00
0F00
0F00
0FF0
0FF0
0F00
0F00
0F00
0F00
0FFF
0FFF
ENDCHAR
STARTCHAR 0389
ENCODING 905
SWIDTH 1000 0
DWIDTH 16 0
BBX 16 14 0 2
BITMAP
3F0F
3F0F
CF0F
CF0F
0F0F
0F0F
0FFF
0FFF
0F0F
0F0F
0F0F
0F0F
0F0F
0F0F
ENDCHAR
STARTCHAR 038A
ENCODING 906
SWIDTH 1000 0
DWIDTH 16 0
BBX 14 14 0 2
BITMAP
33FC
33FC
C0F0
C0F0
00F0
00F0
00F0
00F0
00F0
00F0
00F0
00F0
03FC
03FC
ENDCHAR
STARTCHAR 038C
ENCODING 908
SWIDTH 1000 0
DWIDTH 16 0
BBX 16 14 0 2
BITMAP
33FC
33FC
CF0F
CF0F
0F0F
0F0F
0F0F
0F0F
0F0F
0F0F
0F0F
0F0F
03FC
03FC
ENDCHAR
STARTCHAR 038E
ENCODING 910
SWIDTH 1000 0
DWIDTH 16 0
BBX 16 14 0 2
BITMAP
3F0F
3F0F
CF0F
CF0F
0F0F
0F0F
03FC
03FC
00F0
00F0
00F0
00F0
00F0
00F0
ENDCHAR
STARTCHAR 038F
ENCODING 911
SWIDTH 1000 0
DWIDTH 16 0
BBX 16 14 0 2
BITMAP
33F0
33F0
CF3C
CF3C
3C0F
3C0F
3C0F
3C0F
3C0F
3C0F
0F3C
0F3C
3F3F
3F3F
ENDCHAR
STARTCHAR 0390
ENCODING 912
SWIDTH 1000 0
DWIDTH 16 0
BBX 12 14 0 2
BITMAP
C330
C330
0C00
0C00
3F00
3F00
0F00
0F00
0F00
0F00
0F00
0F00
03F0
03F0
ENDCHAR
STARTCHAR 0391
ENCODING 913
SWIDTH 1000 0
DWIDTH 16 0
BBX 14 14 0 2
BITMAP
0FC0
0FC0
3CF0
3CF0
F03C
F03C
F03C
F03C
FFFC
FFFC
F03C
F03C
F03C
F03C
ENDCHAR
STARTCHAR 0392
ENCODING 914
SWIDTH 1000 0
DWIDTH 16 0
BBX 14 14 0 2
BITMAP
FFF0
FFF0
F03C
F03C
F03C
F03C
FFF0
FFF0
F03C
F03C
F03C
F03C
FFF0
FFF0
ENDCHAR
STARTCHAR 0393
ENCODING 915
SWIDTH 1000 0
DWIDTH 16 0
BBX 12 14 2 2
BITMAP
FFF0
FFF0
F000
F000
F000
F000
F000
F000
F000
F000
F000
F000
F000
F000
ENDCHAR
STARTCHAR 0394
ENCODING 916
SWIDTH 1000 0
DWIDTH 16 0
BBX 14 14 0 2
BITMAP
0FC0
0FC0
3CF0
3CF0
F03C
F03C
F03C
F03C
F03C
F03C
F03C
F03C
FFFC
FFFC
ENDCHAR
STARTCHAR 0395
ENCODING 917
SWIDTH 1000 0
DWIDTH 16 0
BBX 14 14 0 2
BITMAP
FFFC
FFFC
F000
F000
F000
F000
FFF0
FFF0
F000
F000
F000
F000
FFFC
FFFC
ENDCHAR
STARTCHAR 0396
ENCODING 918
SWIDTH 1000 0
DWIDTH 16 0
BBX 14 14 0 2
BITMAP
FFFC
FFFC
00FC
00FC
03F0
03F0
0FC0
0FC0
3F00
3F00
FC00
FC00
FFFC
FFFC
ENDCHAR
STARTCHAR 0397
ENCODING 919
SWIDTH 1000 0
DWIDTH 16 0
BBX 14 14 0 2
BITMAP
F03C
F03C
F03C
F03C
F03C
F03C
FFFC
FFFC
F03C
F03C
F03C
F03C
F03C
F03C
ENDCHAR
STARTCHAR 0398
ENCODING 920
SWIDTH 1000 0
DWIDTH 16 0
BBX 14 14 0 2
BITMAP
3FF0
3FF0
F03C
F03C
F03C
F03C
FFFC
FFFC
F03C
F03C
F03C
F03C
3FF0
3FF0
ENDCHAR
STARTCHAR 0399
ENCODING 921
SWIDTH 1000 0
DWIDTH 16 0
BBX 12 14 2 2
BITMAP
FFF0
FFF0
0F00
0F00
0F00
0F00
0F00
0F00
0F00
0F00
0F00
0F00
FFF0
FFF0
ENDCHAR
STARTCHAR 039A
ENCODING 922
SWIDTH 1000 0
DWIDTH 16 0
BBX 14 14 0 2
BITMAP
F03C
F03C
F0F0
F0F0
F3C0
F3C0
FF00
FF00
FFC0
FFC0
F3F0
F3F0
F0FC
F0FC
ENDCHAR
STARTCHAR 039B
ENCODING 923
SWIDTH 1000 0
DWIDTH 16 0
BBX 14 14 0 2
BITMAP
0FC0
0FC0
3CF0
3CF0
F03C
F03C
F03C
F03C
F03C
F03C
F03C
F03C
F03C
F03C
ENDCHAR
STARTCHAR 039C
ENCODING 924
SWIDTH 1000 0
DWIDTH 16 0
BBX 14 14 0 2
BITMAP
F03C
F03C
FCFC
FCFC
FFFC
FFFC
F33C
F33C
F33C
F33C
F03C
F03C
F03C
F03C
ENDCHAR
STARTCHAR 039D
ENCODING 925
SWIDTH 1000 0
DWIDTH 16 0
BBX 14 14 0 2
BITMAP
F03C
F03C
FC3C
FC3C
FF3C
FF3C
F3FC
F3FC
F0FC
F0FC
F03C
F03C
F03C
F03C
ENDCHAR
STARTCHAR 039E
ENCODING 926
SWIDTH 1000 0
DWIDTH 16 0
BBX 14 14 0 2
BITMAP
FFFC
FFFC
0000
0000
0000
0000
3FF0
3FF0
0000
0000
0000
0000
FFFC
FFFC
ENDCHAR
STARTCHAR 039F
ENCODING 927
SWIDTH 1000 0
DWIDTH 16 0
BBX 14 14 0 2
BITMAP
3FF0
3FF0
F03C
F03C
F03C
F03C
F03C
F03C
F03C
F03C
F03C
F03C
3FF0
3FF0
ENDCHAR
STARTCHAR 03A0
ENCODING 928
SWIDTH 1000 0
DWIDTH 16 0
BBX 14 14 0 2
BITMAP
FFFC
FFFC
F03C
F03C
F03C
F03C
F03C
F03C
F03C
F03C
F03C
F03C
F03C
F03C
ENDCHAR
STARTCHAR 03A1
ENCODING 929
SWIDTH 1000 0
DWIDTH 16 0
BBX 14 14 0 2
BITMAP
FFF0
FFF0
F03C
F03C
F03C
F03C
F03C
F03C
FFF0
FFF0
F000
F000
F000
F000
ENDCHAR
STARTCHAR 03A3
ENCODING 931
SWIDTH 1000 0
DWIDTH 16 0
BBX 14 14 0 2
BITMAP
FFFC
FFFC
3C3C
3C3C
0F00
0F00
03F0
03F0
0F00
0F00
3C3C
3C3C
FFFC
FFFC
ENDCHAR
STARTCHAR 03A4
ENCODING 932
SWIDTH 1000 0
DWIDTH 16 0
BBX 12 14 2 2
BITMAP
FFF0
FFF0
0F00
0F00
0F00
0F00
0F00
0F00
0F00
0F00
0F00
0F00
0F00
0F00
ENDCHAR
STARTCHAR 03A5
ENCODING 933
SWIDTH 1000 0
DWIDTH 16 0
BBX 12 14 2 2
BITMAP
F0F0
F0F0
F0F0
F0F0
F0F0
F0F0
3FC0
3FC0
0F00
0F00
0F00
0F00
0F00
0F00
ENDCHAR
STARTCHAR 03A6
ENCODING 934
SWIDTH 1000 0
DWIDTH 16 0
BBX 14 14 0 2
BITMAP
0300
0300
3FF0
3FF0
F33C
F33C
F33C
F33C
F33C
F33C
3FF0
3FF0
0300
0300
ENDCHAR
STARTCHAR 03A7
ENCODING 935
SWIDTH 1000 0
DWIDTH 16 0
BBX 14 14 0 2
BITMAP
F03C
F03C
F03C
F03C
3CF0
3CF0
0FC0
0FC0
3CF0
3CF0
F03C
F03C
F03C
F03C
ENDCHAR
STARTCHAR 03A8
ENCODING 936
SWIDTH 1000 0
DWIDTH 16 0
BBX 16 14 0 2
BITMAP
F3CF
F3CF
F3CF
F3CF
F3CF
F3CF
3FFC
3FFC
03C0
03C0
03C0
03C0
0FF0
0FF0
ENDCHAR
STARTCHAR 03A9
ENCODING 937
SWIDTH 1000 0
DWIDTH 16 0
BBX 14 14 0 2
BITMAP
0FC0
0FC0
3CF0
3CF0
F03C
F03C
F03C
F03C
F03C
F03C
3CF0
3CF0
FCFC
FCFC
ENDCHAR
STARTCHAR 03AA
ENCODING 938
SWIDTH 1000 0
DWIDTH 16 0
BBX 12 14 2 2
BITMAP
F0F0
F0F0
0000
0000
FFF0
FFF0
0F00
0F00
0F00
0F00
0F00
0F00
FFF0
FFF0
ENDCHAR
STARTCHAR 03AB
ENCODING 939
SWIDTH 1000 0
DWIDTH 16 0
BBX 12 14 2 2
BITMAP
F0F0
F0F0
0000
0000
F0F0
F0F0
F0F0
F0F0
3FC0
3FC0
0F00
0F00
0F00
0F00
ENDCHAR
STARTCHAR 03AC
ENCODING 940
SWIDTH 1000 0
DWIDTH 16 0
BBX 14 14 0 2
BITMAP
00C0
00C0
0300
0300
3FFC
3FFC
F03C
F03C
F03C
F03C
F03C
F03C
3FFC
3FFC
ENDCHAR
STARTCHAR 03AD
ENCODING 941
SWIDTH 1000 0
DWIDTH 16 0
BBX 14 14 0 2
BITMAP
00C0
00C0
0300
0300
3FFC
3FFC
F000
F000
3FF0
3FF0
F000
F000
3FFC
3FFC
ENDCHAR
STARTCHAR 03AE
ENCODING 942
SWIDTH 1000 0
DWIDTH 16 0
BBX 14 16 0 0
BITMAP
00C0
00C0
0300
0300
F3F0
F3F0
3C3C
3C3C
3C3C
3C3C
3C3C
3C3C
3C3C
3C3C
003C
003C
ENDCHAR
STARTCHAR 03AF
ENCODING 943
SWIDTH 1000 0
DWIDTH 16 0
BBX 10 14 2 2
BITMAP
0C00
0C00
3000
3000
FC00
FC00
3C00
3C00
3C00
3C00
3C00
3C00
0FC0
0FC0
ENDCHAR
STARTCHAR 03B0
ENCODING 944
SWIDTH 1000 0
DWIDTH 16 0
BBX 14 14 0 2
BITMAP
C330
C330
0C00
0C00
F0F0
F0F0
3C3C
3C3C
3C3C
3C3C
3C3C
3C3C
0FF0
0FF0
ENDCHAR
STARTCHAR 03B1
ENCODING 945
SWIDTH 1000 0
DWIDTH 16 0
BBX 14 10 0 2
BITMAP
3FFC
3FFC
F03C
F03C
F03C
F03C
F03C
F03C
3FFC
3FFC
ENDCHAR
STARTCHAR 03B2
ENCODING 946
SWIDTH 1000 0
DWIDTH 16 0
BBX 14 16 0 0
BITMAP
3FF0
3FF0
F03C
F03C
F03C
F03C
FFF0
FFF0
F03C
F03C
F03C
F03C
FFF0
FFF0
F000
F000
ENDCHAR
STARTCHAR 03B3
ENCODING 947
SWIDTH 1000 0
DWIDTH 16 0
BBX 14 12 0 0
BITMAP
F03C
F03C
3C3C
3C3C
3C3C
3C3C
0FF0
0FF0
03C0
03C0
03C0
03C0
ENDCHAR
STARTCHAR 03B4
ENCODING 948
SWIDTH 1000 0
DWIDTH 16 0
BBX 14 14 0 2
BITMAP
00FC
00FC
03C0
03C0
00F0
00F0
3FFC
3FFC
F03C
F03C
F03C
F03C
3FF0
3FF0
ENDCHAR
STARTCHAR 03B5
ENCODING 949
SWIDTH 1000 0
DWIDTH 16 0
BBX 14 10 0 2
BITMAP
3FFC
3FFC
F000
F000
3FF0
3FF0
F000
F000
3FFC
3FFC
ENDCHAR
STARTCHAR 03B6
ENCODING 950
SWIDTH 1000 0
DWIDTH 16 0
BBX 14 16 0 0
BITMAP
3FF0
3FF0
0F00
0F00
3C00
3C00
F000
F000
F000
F000
3FF0
3FF0
003C
003C
00F0
00F0
ENDCHAR
STARTCHAR 03B7
ENCODING 951
SWIDTH 1000 0
DWIDTH 16 0
BBX 14 12 0 0
BITMAP
F3F0
F3F0
3C3C
3C3C
3C3C
3C3C
3C3C
3C3C
3C3C
3C3C
003C
003C
ENDCHAR
STARTCHAR 03B8
ENCODING 952
SWIDTH 1000 0
DWIDTH 16 0
BBX 14 14 0 2
BITMAP
0FC0
0FC0
3CF0
3CF0
F03C
F03C
FFFC
FFFC
F03C
F03C
3CF0
3CF0
0FC0
0FC0
ENDCHAR
STARTCHAR 03B9
ENCODING 953
SWIDTH 1000 0
DWIDTH 16 0
BBX 10 10 2 2
BITMAP
FC00
FC00
3C00
3C00
3C00
3C00
3C00
3C00
0FC0
0FC0
ENDCHAR
STARTCHAR 03BA
ENCODING 954
SWIDTH 1000 0
DWIDTH 16 0
BBX 14 10 0 2
BITMAP
F03C
F03C
F0F0
F0F0
FFC0
FFC0
F0F0
F0F0
F03C
F03C
ENDCHAR
STARTCHAR 03BB
ENCODING 955
SWIDTH 1000 0
DWIDTH 16 0
BBX 14 14 0 2
BITMAP
F000
F000
3C00
3C00
0F00
0F00
0FC0
0FC0
3CF0
3CF0
F03C
F03C
F03C
F03C
ENDCHAR
STARTCHAR 03BC
ENCODING 956
SWIDTH 1000 0
DWIDTH 16 0
BBX 14 12 0 0
BITMAP
F0F0
F0F0
F0F0
F0F0
F0F0
F0F0
F0F0
F0F0
FF3C
FF3C
F000
F000
ENDCHAR
STARTCHAR 03BD
ENCODING 957
SWIDTH 1000 0
DWIDTH 16 0
BBX 14 10 0 2
BITMAP
F03C
F03C
3C3C
3C3C
3C3C
3C3C
0FF0
0FF0
03C0
03C0
ENDCHAR
STARTCHAR 03BE
ENCODING 958
SWIDTH 1000 0
DWIDTH 16 0
BBX 12 16 0 0
BITMAP
FFF0
FFF0
3C00
3C00
0FC0
0FC0
3C00
3C00
F000
F000
3FC0
3FC0
00F0
00F0
03C0
03C0
ENDCHAR
STARTCHAR 03BF
ENCODING 959
SWIDTH 1000 0
DWIDTH 16 0
BBX 14 10 0 2
BITMAP
3FF0
3FF0
F03C
F03C
F03C
F03C
F03C
F03C
3FF0
3FF0
ENDCHAR
STARTCHAR 03C0
ENCODING 960
SWIDTH 1000 0
DWIDTH 16 0
BBX 14 10 0 2
BITMAP
FFFC
FFFC
3CF0
3CF0
3CF0
3CF0
3CF0
3CF0
FC3C
FC3C
ENDCHAR
STARTCHAR 03C1
ENCODING 961
SWIDTH 1000 0
DWIDTH 16 0
BBX 14 12 0 0
BITMAP
3FF0
3FF0
F03C
F03C
F03C
F03C
FFF0
FFF0
F000
F000
F000
F000
ENDCHAR
STARTCHAR 03C2
ENCODING 962
SWIDTH 1000 0
DWIDTH 16 0
BBX 14 12 0 0
BITMAP
3FF0
3FF0
F000
F000
F000
F000
3FF0
3FF0
003C
003C
3FF0
3FF0
ENDCHAR
STARTCHAR 03C3
ENCODING 963
SWIDTH 1000 0
DWIDTH 16 0
BBX 14 10 0 2
BITMAP
3FFC
3FFC
F3C0
F3C0
F0F0
F0F0
F0F0
F0F0
3FC0
3FC0
ENDCHAR
STARTCHAR 03C4
ENCODING 964
SWIDTH 1000 0
DWIDTH 16 0
BBX 12 10 2 2
BITMAP
FFF0
FFF0
0F00
0F00
0F00
0F00
0F00
0F00
03F0
03F0
ENDCHAR
STARTCHAR 03C5
ENCODING 965
SWIDTH 1000 0
DWIDTH 16 0
BBX 14 10 0 2
BITMAP
F0F0
F0F0
3C3C
3C3C
3C3C
3C3C
3C3C
3C3C
0FF0
0FF0
ENDCHAR
STARTCHAR 03C6
ENCODING 966
SWIDTH 1000 0
DWIDTH 16 0
BBX 14 12 0 0
BITMAP
30F0
30F0
F33C
F33C
F33C
F33C
F33C
F33C
3FF0
3FF0
0300
0300
ENDCHAR
STARTCHAR 03C7
ENCODING 967
SWIDTH 1000 0
DWIDTH 16 0
BBX 14 12 0 0
BITMAP
F03C
F03C
3CF0
3CF0
0FC0
0FC0
3CF0
3CF0
F03C
F03C
F03C
F03C
ENDCHAR
STARTCHAR 03C8
ENCODING 968
SWIDTH 1000 0
DWIDTH 16 0
BBX 16 14 0 0
BITMAP
03C0
03C0
F3CF
F3CF
F3CF
F3CF
F3CF
F3CF
F3CF
F3CF
3FFC
3FFC
03C0
03C0
ENDCHAR
STARTCHAR 03C9
ENCODING 969
SWIDTH 1000 0
DWIDTH 16 0
BBX 14 10 0 2
BITMAP
3030
3030
F33C
F33C
F33C
F33C
F33C
F33C
3CF0
3CF0
ENDCHAR
STARTCHAR 03CA
ENCODING 970
SWIDTH 1000 0
DWIDTH 16 0
BBX 12 14 0 2
BITMAP
F3C0
F3C0
0000
0000
3F00
3F00
0F00
0F00
0F00
0F00
0F00
0F00
03F0
03F0
ENDCHAR
STARTCHAR 03CB
ENCODING 971
SWIDTH 1000 0
DWIDTH 16 0
BBX 14 14 0 2
BITMAP
3CF0
3CF0
0000
0000
F0F0
F0F0
3C3C
3C3C
3C3C
3C3C
3C3C
3C3C
0FF0
0FF0
ENDCHAR
STARTCHAR 03CC
ENCODING 972
SWIDTH 1000 0
DWIDTH 16 0
BBX 14 14 0 2
BITMAP
00C0
00C0
0300
0300
3FF0
3FF0
F03C
F03C
F03C
F03C
F03C
F03C
3FF0
3FF0
ENDCHAR
STARTCHAR 03CD
ENCODING 973
SWIDTH 1000 0
DWIDTH 16 0
BBX 14 14 0 2
BITMAP
00C0
00C0
0300
0300
F0F0
F0F0
3C3C
3C3C
3C3C
3C3C
3C3C
3C3C
0FF0
0FF0
ENDCHAR
STARTCHAR 03CE
ENCODING 974
SWIDTH 1000 0
DWIDTH 16 0
BBX 14 14 0 2
BITMAP
00C0
00C0
0300
0300
3030
3030
F33C
F33C
F33C
F33C
F33C
F33C
3CF0
3CF0
ENDCHAR
STARTCHAR 0400
ENCODING 1024
SWIDTH 1000 0
DWIDTH 16 0
BBX 14 14 0 2
BITMAP
0C00
0C00
0300
0300
FFFC
FFFC
F000
F000
FFF0
FFF0
F000
F000
FFFC
FFFC
ENDCHAR
STARTCHAR 0401
ENCODING 1025
SWIDTH 1000 0
DWIDTH 16 0
BBX 14 14 0 2
BITMAP
3CF0
3CF0
0000
0000
FFFC
FFFC
F000
F000
FFF0
FFF0
F000
F000
FFFC
FFFC
ENDCHAR
STARTCHAR 0402
ENCODING 1026
SWIDTH 1000 0
DWIDTH 16 0
BBX 14 16 0 0
BITMAP
FFC0
FFC0
3C00
3C00
3FF0
3FF0
3C3C
3C3C
3C3C
3C3C
3C3C
3C3C
3C3C
3C3C
00F0
00F0
ENDCHAR
STARTCHAR 0403
ENCODING 1027
SWIDTH 1000 0
DWIDTH 16 0
BBX 12 14 2 2
BITMAP
0300
0300
0C00
0C00
FFF0
FFF0
F030
F030
F000
F000
F000
F000
F000
F000
ENDCHAR
STARTCHAR 0404
ENCODING 1028
SWIDTH 1000 0
DWIDTH 16 0
BBX 14 14 0 2
BITMAP
0FF0
0FF0
3C3C
3C3C
F000
F000
FFF0
FFF0
F000
F000
3C3C
3C3C
0FF0
0FF0
ENDCHAR
STARTCHAR 0405
ENCODING 1029
SWIDTH 1000 0
DWIDTH 16 0
BBX 14 14 0 2
BITMAP
3FF0
3FF0
F03C
F03C
F000
F000
3FF0
3FF0
003C
003C
F03C
F03C
3FF0
3FF0
ENDCHAR
STARTCHAR 0406
ENCODING 1030
SWIDTH 1000 0
DWIDTH 16 0
BBX 12 14 2 2
BITMAP
FFF0
FFF0
0F00
0F00
0F00
0F00
0F00
0F00
0F00
0F00
0F00
0F00
FFF0
FFF0
ENDCHAR
STARTCHAR 0407
ENCODING 1031
SWIDTH 1000 0
DWIDTH 16 0
BBX 12 14 2 2
BITMAP
F0F0
F0F0
0000
0000
FFF0
FFF0
0F00
0F00
0F00
0F00
0F00
0F00
FFF0
FFF0
ENDCHAR
STARTCHAR 0408
ENCODING 1032
SWIDTH 1000 0
DWIDTH 16 0
BBX 14 14 0 2
BITMAP
003C
003C
003C
003C
003C
003C
003C
003C
003C
003C
F03C
F03C
3FF0
3FF0
ENDCHAR
STARTCHAR 0409
ENCODING 1033
SWIDTH 1000 0
DWIDTH 16 0
BBX 14 14 0 2
BITMAP
3FC0
3FC0
33C0
33C0
33FC
33FC
33CC
33CC
33CC
33CC
F3CC
F3CC
F3FC
F3FC
ENDCHAR
STARTCHAR 040A
ENCODING 1034
SWIDTH 1000 0
DWIDTH 16 0
BBX 14 14 0 2
BITMAP
F3C0
F3C0
F3C0
F3C0
F3FC
F3FC
FFCC
FFCC
F3CC
F3CC
F3CC
F3CC
F3FC
F3FC
ENDCHAR
STARTCHAR 040B
ENCODING 1035
SWIDTH 1000 0
DWIDTH 16 0
BBX 14 14 0 2
BITMAP
FFC0
FFC0
3C00
3C00
3FF0
3FF0
3C3C
3C3C
3C3C
3C3C
3C3C
3C3C
3C3C
3C3C
ENDCHAR
STARTCHAR 040C
ENCODING 1036
SWIDTH 1000 0
DWIDTH 16 0
BBX 14 14 0 2
BITMAP
00C0
00C0
0300
0300
F03C
F03C
F0C0
F0C0
FFF0
FFF0
F03C
F03C
F03C
F03C
ENDCHAR
STARTCHAR 040D
ENCODING 1037
SWIDTH 1000 0
DWIDTH 16 0
BBX 14 14 0 2
BITMAP
0C00
0C00
0300
0300
F03C
F03C
F0FC
F0FC
F3FC
F3FC
FF3C
FF3C
FC3C
FC3C
ENDCHAR
STARTCHAR 040E
ENCODING 1038
SWIDTH 1000 0
DWIDTH 16 0
BBX 14 16 0 0
BITMAP
3FF0
3FF0
0000
0000
F03C
F03C
F03C
F03C
F03C
F03C
3FFC
3FFC
003C
003C
3FF0
3FF0
ENDCHAR
STARTCHAR 040F
ENCODING 1039
SWIDTH 1000 0
DWIDTH 16 0
BBX 14 16 0 0
BITMAP
F03C
F03C
F03C
F03C
F03C
F03C
F03C
F03C
F03C
F03C
F03C
F03C
FFFC
FFFC
0300
0300
ENDCHAR
STARTCHAR 0410
ENCODING 1040
SWIDTH 1000 0
DWIDTH 16 0
BBX 14 14 0 2
BITMAP
0FC0
0FC0
3CF0
3CF0
F03C
F03C
F03C
F03C
FFFC
FFFC
F03C
F03C
F03C
F03C
ENDCHAR
STARTCHAR 0411
ENCODING 1041
SWIDTH 1000 0
DWIDTH 16 0
BBX 14 14 0 2
BITMAP
FFF0
FFF0
F000
F000
F000
F000
FFF0
FFF0
F03C
F03C
F03C
F03C
FFF0
FFF0
ENDCHAR
STARTCHAR 0412
ENCODING 1042
SWIDTH 1000 0
DWIDTH 16 0
BBX 14 14 0 2
BITMAP
FFF0
FFF0
F03C
F03C
F03C
F03C
FFF0
FFF0
F03C
F03C
F03C
F03C
FFF0
FFF0
ENDCHAR
STARTCHAR 0413
ENCODING 1043
SWIDTH 1000 0
DWIDTH 16 0
BBX 12 14 2 2
BITMAP
FFF0
FFF0
F030
F030
F000
F000
F000
F000
F000
F000
F000
F000
F000
F000
ENDCHAR
STARTCHAR 0414
ENCODING 1044
SWIDTH 1000 0
DWIDTH 16 0
BBX 16 16 0 0
BITMAP
0FFC
0FFC
0C3C
0C3C
0C3C
0C3C
0C3C
0C3C
3C3C
3C3C
3C3C
3C3C
FFFF
FFFF
F00F
F00F
ENDCHAR
STARTCHAR 0415
ENCODING 1045
SWIDTH 1000 0
DWIDTH 16 0
BBX 14 14 0 2
BITMAP
FFFC
FFFC
F000
F000
F000
F000
FFF0
FFF0
F000
F000
F000
F000
FFFC
FFFC
ENDCHAR
STARTCHAR 0416
ENCODING 1046
SWIDTH 1000 0
DWIDTH 16 0
BBX 14 14 0 2
BITMAP
F33C
F33C
F33C
F33C
3330
3330
0FC0
0FC0
3330
3330
F33C
F33C
F33C
F33C
ENDCHAR
STARTCHAR 0417
ENCODING 1047
SWIDTH 1000 0
DWIDTH 16 0
BBX 14 14 0 2
BITMAP
3FF0
3FF0
F03C
F03C
003C
003C
0FF0
0FF0
003C
003C
F03C
F03C
3FF0
3FF0
ENDCHAR
STARTCHAR 0418
ENCODING 1048
SWIDTH 1000 0
DWIDTH 16 0
BBX 14 14 0 2
BITMAP
F03C
F03C
F03C
F03C
F0FC
F0FC
F3FC
F3FC
FF3C
FF3C
FC3C
FC3C
F03C
F03C
ENDCHAR
STARTCHAR 0419
ENCODING 1049
SWIDTH 1000 0
DWIDTH 16 0
BBX 14 14 0 2
BITMAP
3FF0
3FF0
0000
0000
F03C
F03C
F0FC
F0FC
F3FC
F3FC
FF3C
FF3C
FC3C
FC3C
ENDCHAR
STARTCHAR 041A
ENCODING 1050
SWIDTH 1000 0
DWIDTH 16 0
BBX 14 14 0 2
BITMAP
F03C
F03C
F0F0
F0F0
F300
F300
FFC0
FFC0
F0F0
F0F0
F0F0
F0F0
F03C
F03C
ENDCHAR
STARTCHAR 041B
ENCODING 1051
SWIDTH 1000 0
DWIDTH 16 0
BBX 14 14 0 2
BITMAP
0FFC
0FFC
0C3C
0C3C
0C3C
0C3C
0C3C
0C3C
3C3C
3C3C
FC3C
FC3C
F03C
F03C
ENDCHAR
STARTCHAR 041C
ENCODING 1052
SWIDTH 1000 0
DWIDTH 16 0
BBX 14 14 0 2
BITMAP
F03C
F03C
FCFC
FCFC
FFFC
FFFC
F33C
F33C
F33C
F33C
F03C
F03C
F03C
F03C
ENDCHAR
STARTCHAR 041D
ENCODING 1053
SWIDTH 1000 0
DWIDTH 16 0
BBX 14 14 0 2
BITMAP
F03C
F03C
F03C
F03C
F03C
F03C
FFFC
FFFC
F03C
F03C
F03C
F03C
F03C
F03C
ENDCHAR
STARTCHAR 041E
ENCODING 1054
SWIDTH 1000 0
DWIDTH 16 0
BBX 14 14 0 2
BITMAP
3FF0
3FF0
F03C
F03C
F03C
F03C
F03C
F03C
F03C
F03C
F03C
F03C
3FF0
3FF0
ENDCHAR
STARTCHAR 041F
ENCODING 1055
SWIDTH 1000 0
DWIDTH 16 0
BBX 14 14 0 2
BITMAP
FFFC
FFFC
F03C
F03C
F03C
F03C
F03C
F03C
F03C
F03C
F03C
F03C
F03C
F03C
ENDCHAR
STARTCHAR 0420
ENCODING 1056
SWIDTH 1000 0
DWIDTH 16 0
BBX 14 14 0 2
BITMAP
FFF0
FFF0
F03C
F03C
F03C
F03C
F03C
F03C
FFF0
FFF0
F000
F000
F000
F000
ENDCHAR
STARTCHAR 0421
ENCODING 1057
SWIDTH 1000 0
DWIDTH 16 0
BBX 14 14 0 2
BITMAP
0FF0
0FF0
3C3C
3C3C
F000
F000
F000
F000
F000
F000
3C3C
3C3C
0FF0
0FF0
ENDCHAR
STARTCHAR 0422
ENCODING 1058
SWIDTH 1000 0
DWIDTH 16 0
BBX 12 14 2 2
BITMAP
FFF0
FFF0
0F00
0F00
0F00
0F00
0F00
0F00
0F00
0F00
0F00
0F00
0F00
0F00
ENDCHAR
STARTCHAR 0423
ENCODING 1059
SWIDTH 1000 0
DWIDTH 16 0
BBX 14 14 0 2
BITMAP
F03C
F03C
F03C
F03C
F03C
F03C
3FFC
3FFC
003C
003C
F03C
F03C
3FF0
3FF0
ENDCHAR
STARTCHAR 0424
ENCODING 1060
SWIDTH 1000 0
DWIDTH 16 0
BBX 14 14 0 2
BITMAP
0300
0300
3FF0
3FF0
F33C
F33C
F33C
F33C
F33C
F33C
3FF0
3FF0
0300
0300
ENDCHAR
STARTCHAR 0425
ENCODING 1061
SWIDTH 1000 0
DWIDTH 16 0
BBX 14 14 0 2
BITMAP
F03C
F03C
F03C
F03C
3CF0
3CF0
0FC0
0FC0
3CF0
3CF0
F03C
F03C
F03C
F03C
ENDCHAR
STARTCHAR 0426
ENCODING 1062
SWIDTH 1000 0
DWIDTH 16 0
BBX 14 16 0 0
BITMAP
F0F0
F0F0
F0F0
F0F0
F0F0
F0F0
F0F0
F0F0
F0F0
F0F0
F0F0
F0F0
FFFC
FFFC
003C
003C
ENDCHAR
STARTCHAR 0427
ENCODING 1063
SWIDTH 1000 0
DWIDTH 16 0
BBX 14 14 0 2
BITMAP
F03C
F03C
F03C
F03C
F03C
F03C
3FFC
3FFC
003C
003C
003C
003C
003C
003C
ENDCHAR
STARTCHAR 0428
ENCODING 1064
SWIDTH 1000 0
DWIDTH 16 0
BBX 14 14 0 2
BITMAP
F33C
F33C
F33C
F33C
F33C
F33C
F33C
F33C
F33C
F33C
F33C
F33C
FFFC
FFFC
ENDCHAR
STARTCHAR 0429
ENCODING 1065
SWIDTH 1000 0
DWIDTH 16 0
BBX 16 16 0 0
BITMAP
F33C
F33C
F33C
F33C
F33C
F33C
F33C
F33C
F33C
F33C
F33C
F33C
FFFF
FFFF
000F
000F
ENDCHAR
STARTCHAR 042A
ENCODING 1066
SWIDTH 1000 0
DWIDTH 16 0
BBX 14 14 0 2
BITMAP
FC00
FC00
3C00
3C00
3FF0
3FF0
3C3C
3C3C
3C3C
3C3C
3C3C
3C3C
3FF0
3FF0
ENDCHAR
STARTCHAR 042B
ENCODING 1067
SWIDTH 1000 0
DWIDTH 16 0
BBX 14 14 0 2
BITMAP
F03C
F03C
F03C
F03C
FF3C
FF3C
F33C
F33C
F33C
F33C
F33C
F33C
FF3C
FF3C
ENDCHAR
STARTCHAR 042C
ENCODING 1068
SWIDTH 1000 0
DWIDTH 16 0
BBX 14 14 0 2
BITMAP
F000
F000
F000
F000
FFF0
FFF0
F03C
F03C
F03C
F03C
F03C
F03C
FFF0
FFF0
ENDCHAR
STARTCHAR 042D
ENCODING 1069
SWIDTH 1000 0
DWIDTH 16 0
BBX 14 14 0 2
BITMAP
3FC0
3FC0
F0F0
F0F0
003C
003C
3FFC
3FFC
003C
003C
F0F0
F0F0
3FC0
3FC0
ENDCHAR
STARTCHAR 042E
ENCODING 1070
SWIDTH 1000 0
DWIDTH 16 0
BBX 14 14 0 2
BITMAP
C3F0
C3F0
CF3C
CF3C
CF3C
CF3C
FF3C
FF3C
CF3C
CF3C
CF3C
CF3C
C3F0
C3F0
ENDCHAR
STARTCHAR 042F
ENCODING 1071
SWIDTH 1000 0
DWIDTH 16 0
BBX 14 14 0 2
BITMAP
3FFC
3FFC
F03C
F03C
F03C
F03C
FC3C
FC3C
0FFC
0FFC
3C3C
3C3C
FC3C
FC3C
ENDCHAR
STARTCHAR 0430
ENCODING 1072
SWIDTH 1000 0
DWIDTH 16 0
BBX 14 10 0 2
BITMAP
3FF0
3FF0
003C
003C
3FFC
3FFC
F03C
F03C
3FFC
3FFC
ENDCHAR
STARTCHAR 0431
ENCODING 1073
SWIDTH 1000 0
DWIDTH 16 0
BBX 14 14 0 2
BITMAP
3FFC
3FFC
F000
F000
F3F0
F3F0
FC3C
FC3C
F03C
F03C
F03C
F03C
3FF0
3FF0
ENDCHAR
STARTCHAR 0432
ENCODING 1074
SWIDTH 1000 0
DWIDTH 16 0
BBX 14 10 0 2
BITMAP
FFF0
FFF0
F03C
F03C
FFF0
FFF0
F03C
F03C
FFF0
FFF0
ENDCHAR
STARTCHAR 0433
ENCODING 1075
SWIDTH 1000 0
DWIDTH 16 0
BBX 12 10 2 2
BITMAP
FFF0
FFF0
F030
F030
F000
F000
F000
F000
F000
F000
ENDCHAR
STARTCHAR 0434
ENCODING 1076
SWIDTH 1000 0
DWIDTH 16 0
BBX 16 12 0 0
BITMAP
0FFC
0FFC
0C3C
0C3C
0C3C
0C3C
3C3C
3C3C
FFFF
FFFF
F00F
F00F
ENDCHAR
STARTCHAR 0435
ENCODING 1077
SWIDTH 1000 0
DWIDTH 16 0
BBX 14 10 0 2
BITMAP
3FF0
3FF0
F03C
F03C
FFFC
FFFC
F000
F000
3FF0
3FF0
ENDCHAR
STARTCHAR 0436
ENCODING 1078
SWIDTH 1000 0
DWIDTH 16 0
BBX 14 10 0 2
BITMAP
F33C
F33C
F33C
F33C
3FF0
3FF0
F33C
F33C
F33C
F33C
ENDCHAR
STARTCHAR 0437
ENCODING 1079
SWIDTH 1000 0
DWIDTH 16 0
BBX 14 10 0 2
BITMAP
3FF0
3FF0
F03C
F03C
03F0
03F0
F03C
F03C
3FF0
3FF0
ENDCHAR
STARTCHAR 0438
ENCODING 1080
SWIDTH 1000 0
DWIDTH 16 0
BBX 14 10 0 2
BITMAP
F03C
F03C
F0FC
F0FC
F33C
F33C
FC3C
FC3C
F03C
F03C
ENDCHAR
STARTCHAR 0439
ENCODING 1081
SWIDTH 1000 0
DWIDTH 16 0
BBX 14 14 0 2
BITMAP
3FF0
3FF0
0000
0000
F03C
F03C
F0FC
F0FC
F33C
F33C
FC3C
FC3C
F03C
F03C
ENDCHAR
STARTCHAR 043A
ENCODING 1082
SWIDTH 1000 0
DWIDTH 16 0
BBX 14 10 0 2
BITMAP
F03C
F03C
F0C0
F0C0
FFF0
FFF0
F03C
F03C
F03C
F03C
ENDCHAR
STARTCHAR 043B
ENCODING 1083
SWIDTH 1000 0
DWIDTH 16 0
BBX 14 10 0 2
BITMAP
0FFC
0FFC
0C3C
0C3C
3C3C
3C3C
FC3C
FC3C
F03C
F03C
ENDCHAR
STARTCHAR 043C
ENCODING 1084
SWIDTH 1000 0
DWIDTH 16 0
BBX 14 10 0 2
BITMAP
F03C
F03C
FCFC
FCFC
F33C
F33C
F33C
F33C
F03C
F03C
ENDCHAR
STARTCHAR 043D
ENCODING 1085
SWIDTH 1000 0
DWIDTH 16 0
BBX 14 10 0 2
BITMAP
F03C
F03C
F03C
F03C
FFFC
FFFC
F03C
F03C
F03C
F03C
ENDCHAR
STARTCHAR 043E
ENCODING 1086
SWIDTH 1000 0
DWIDTH 16 0
BBX 14 10 0 2
BITMAP
3FF0
3FF0
F03C
F03C
F03C
F03C
F03C
F03C
3FF0
3FF0
ENDCHAR
STARTCHAR 043F
ENCODING 1087
SWIDTH 1000 0
DWIDTH 16 0
BBX 14 10 0 2
BITMAP
FFFC
FFFC
F03C
F03C
F03C
F03C
F03C
F03C
F03C
F03C
ENDCHAR
STARTCHAR 0440
ENCODING 1088
SWIDTH 1000 0
DWIDTH 16 0
BBX 14 12 0 0
BITMAP
F3F0
F3F0
FC3C
FC3C
F03C
F03C
F03C
F03C
FFF0
FFF0
F000
F000
ENDCHAR
STARTCHAR 0441
ENCODING 1089
SWIDTH 1000 0
DWIDTH 16 0
BBX 14 10 0 2
BITMAP
3FF0
3FF0
F03C
F03C
F000
F000
F03C
F03C
3FF0
3FF0
ENDCHAR
STARTCHAR 0442
ENCODING 1090
SWIDTH 1000 0
DWIDTH 16 0
BBX 12 10 2 2
BITMAP
FFF0
FFF0
0F00
0F00
0F00
0F00
0F00
0F00
0F00
0F00
ENDCHAR
STARTCHAR 0443
ENCODING 1091
SWIDTH 1000 0
DWIDTH 16 0
BBX 14 12 0 0
BITMAP
F03C
F03C
F03C
F03C
F03C
F03C
3FFC
3FFC
003C
003C
3FF0
3FF0
ENDCHAR
STARTCHAR 0444
ENCODING 1092
SWIDTH 1000 0
DWIDTH 16 0
BBX 14 14 0 0
BITMAP
0300
0300
3FF0
3FF0
F33C
F33C
F33C
F33C
F33C
F33C
3FF0
3FF0
0300
0300
ENDCHAR
STARTCHAR 0445
ENCODING 1093
SWIDTH 1000 0
DWIDTH 16 0
BBX 14 10 0 2
BITMAP
F03C
F03C
3CF0
3CF0
0FC0
0FC0
3CF0
3CF0
F03C
F03C
ENDCHAR
STARTCHAR 0446
ENCODING 1094
SWIDTH 1000 0
DWIDTH 16 0
BBX 14 12 0 0
BITMAP
F0F0
F0F0
F0F0
F0F0
F0F0
F0F0
F0F0
F0F0
FFFC
FFFC
003C
003C
ENDCHAR
STARTCHAR 0447
ENCODING 1095
SWIDTH 1000 0
DWIDTH 16 0
BBX 14 10 0 2
BITMAP
F03C
F03C
F03C
F03C
3FFC
3FFC
003C
003C
003C
003C
ENDCHAR
STARTCHAR 0448
ENCODING 1096
SWIDTH 1000 0
DWIDTH 16 0
BBX 14 10 0 2
BITMAP
F33C
F33C
F33C
F33C
F33C
F33C
F33C
F33C
FFFC
FFFC
ENDCHAR
STARTCHAR 0449
ENCODING 1097
SWIDTH 1000 0
DWIDTH 16 0
BBX 16 12 0 0
BITMAP
F33C
F33C
F33C
F33C
F33C
F33C
F33C
F33C
FFFF
FFFF
000F
000F
ENDCHAR
STARTCHAR 044A
ENCODING 1098
SWIDTH 1000 0
DWIDTH 16 0
BBX 14 10 0 2
BITMAP
FC00
FC00
3C00
3C00
3FF0
3FF0
3C3C
3C3C
3FF0
3FF0
ENDCHAR
STARTCHAR 044B
ENCODING 1099
SWIDTH 1000 0
DWIDTH 16 0
BBX 14 10 0 2
BITMAP
F03C
F03C
F03C
F03C
FF3C
FF3C
F33C
F33C
FF3C
FF3C
ENDCHAR
STARTCHAR 044C
ENCODING 1100
SWIDTH 1000 0
DWIDTH 16 0
BBX 14 10 0 2
BITMAP
F000
F000
F000
F000
FFF0
FFF0
F03C
F03C
FFF0
FFF0
ENDCHAR
STARTCHAR 044D
ENCODING 1101
SWIDTH 1000 0
DWIDTH 16 0
BBX 14 10 0 2
BITMAP
3FF0
3FF0
F03C
F03C
03FC
03FC
F03C
F03C
3FF0
3FF0
ENDCHAR
STARTCHAR 044E
ENCODING 1102
SWIDTH 1000 0
DWIDTH 16 0
BBX 14 10 0 2
BITMAP
C3F0
C3F0
CF3C
CF3C
FF3C
FF3C
CF3C
CF3C
C3F0
C3F0
ENDCHAR
STARTCHAR 044F
ENCODING 1103
SWIDTH 1000 0
DWIDTH 16 0
BBX 14 10 0 2
BITMAP
3FFC
3FFC
F03C
F03C
3FFC
3FFC
F03C
F03C
F03C
F03C
ENDCHAR
STARTCHAR 0450
ENCODING 1104
SWIDTH 1000 0
DWIDTH 16 0
BBX 14 14 0 2
BITMAP
0C00
0C00
0300
0300
3FF0
3FF0
F03C
F03C
FFFC
FFFC
F000
F000
3FF0
3FF0
ENDCHAR
STARTCHAR 0451
ENCODING 1105
SWIDTH 1000 0
DWIDTH 16 0
BBX 14 14 0 2
BITMAP
3CF0
3CF0
0000
0000
3FF0
3FF0
F03C
F03C
FFFC
FFFC
F000
F000
3FF0
3FF0
ENDCHAR
STARTCHAR 0452
ENCODING 1106
SWIDTH 1000 0
DWIDTH 16 0
BBX 14 16 0 0
BITMAP
3C00
3C00
FFC0
FFC0
3C00
3C00
3FF0
3FF0
3C3C
3C3C
3C3C
3C3C
3C3C
3C3C
00F0
00F0
ENDCHAR
STARTCHAR 0453
ENCODING 1107
SWIDTH 1000 0
DWIDTH 16 0
BBX 12 14 2 2
BITMAP
00C0
00C0
0300
0300
FFF0
FFF0
F030
F030
F000
F000
F000
F000
F000
F000
ENDCHAR
STARTCHAR 0454
ENCODING 1108
SWIDTH 1000 0
DWIDTH 16 0
BBX 14 10 0 2
BITMAP
3FF0
3FF0
F03C
F03C
FF00
FF00
F03C
F03C
3FF0
3FF0
ENDCHAR
STARTCHAR 0455
ENCODING 1109
SWIDTH 1000 0
DWIDTH 16 0
BBX 14 10 0 2
BITMAP
3FF0
3FF0
F000
F000
3FF0
3FF0
003C
003C
FFF0
FFF0
ENDCHAR
STARTCHAR 0456
ENCODING 1110
SWIDTH 1000 0
DWIDTH 16 0
BBX 12 14 2 2
BITMAP
0F00
0F00
0000
0000
3F00
3F00
0F00
0F00
0F00
0F00
0F00
0F00
FFF0
FFF0
ENDCHAR
STARTCHAR 0457
ENCODING 1111
SWIDTH 1000 0
DWIDTH 16 0
BBX 12 14 2 2
BITMAP
F3C0
F3C0
0000
0000
3F00
3F00
0F00
0F00
0F00
0F00
0F00
0F00
FFF0
FFF0
ENDCHAR
STARTCHAR 0458
ENCODING 1112
SWIDTH 1000 0
DWIDTH 16 0
BBX 10 16 2 0
BITMAP
03C0
03C0
0000
0000
0FC0
0FC0
03C0
03C0
03C0
03C0
03C0
03C0
03C0
03C0
FF00
FF00
ENDCHAR
STARTCHAR 0459
ENCODING 1113
SWIDTH 1000 0
DWIDTH 16 0
BBX 14 10 0 2
BITMAP
3FC0
3FC0
33FC
33FC
33CC
33CC
F3CC
F3CC
F3FC
F3FC
ENDCHAR
STARTCHAR 045A
ENCODING 1114
SWIDTH 1000 0
DWIDTH 16 0
BBX 14 10 0 2
BITMAP
F3C0
F3C0
F3FC
F3FC
FFCC
FFCC
F3CC
F3CC
F3FC
F3FC
ENDCHAR
STARTCHAR 045B
ENCODING 1115
SWIDTH 1000 0
DWIDTH 16 0
BBX 14 14 0 2
BITMAP
3C00
3C00
FFC0
FFC0
3C00
3C00
3FF0
3FF0
3C3C
3C3C
3C3C
3C3C
3C3C
3C3C
ENDCHAR
STARTCHAR 045C
ENCODING 1116
SWIDTH 1000 0
DWIDTH 16 0
BBX 14 14 0 2
BITMAP
00C0
00C0
0300
0300
F03C
F03C
F0C0
F0C0
FFF0
FFF0
F03C
F03C
F03C
F03C
ENDCHAR
STARTCHAR 045D
ENCODING 1117
SWIDTH 1000 0
DWIDTH 16 0
BBX 14 14 0 2
BITMAP
0C00
0C00
0300
0300
F03C
F03C
F0FC
F0FC
F33C
F33C
FC3C
FC3C
F03C
F03C
ENDCHAR
STARTCHAR 045E
ENCODING 1118
SWIDTH 1000 0
DWIDTH 16 0
BBX 14 16 0 0
BITMAP
3FF0
3FF0
0000
0000
F03C
F03C
F03C
F03C
F03C
F03C
3FFC
3FFC
003C
003C
3FF0
3FF0
ENDCHAR
STARTCHAR 045F
ENCODING 1119
SWIDTH 1000 0
DWIDTH 16 0
BBX 14 12 0 0
BITMAP
F03C
F03C
F03C
F03C
F03C
F03C
F03C
F03C
FFFC
FFFC
0300
0300
ENDCHAR
STARTCHAR 0462
ENCODING 1122
SWIDTH 1000 0
DWIDTH 16 0
BBX 14 14 0 2
BITMAP
3C00
3C00
FFC0
FFC0
3C00
3C00
3FF0
3FF0
3C3C
3C3C
3C3C
3C3C
3FF0
3FF0
ENDCHAR
STARTCHAR 0463
ENCODING 1123
SWIDTH 1000 0
DWIDTH 16 0
BBX 14 14 0 2
BITMAP
3C00
3C00
3C00
3C00
FFC0
FFC0
3C00
3C00
3FF0
3FF0
3C3C
3C3C
3FF0
3FF0
ENDCHAR
STARTCHAR 046A
ENCODING 1130
SWIDTH 1000 0
DWIDTH 16 0
BBX 14 14 0 2
BITMAP
FFFC
FFFC
C00C
C00C
3030
3030
0FC0
0FC0
3330
3330
F33C
F33C
F33C
F33C
ENDCHAR
STARTCHAR 046B
ENCODING 1131
SWIDTH 1000 0
DWIDTH 16 0
BBX 14 10 0 2
BITMAP
FFFC
FFFC
3030
3030
0FC0
0FC0
F33C
F33C
F33C
F33C
ENDCHAR
STARTCHAR 0472
ENCODING 1138
SWIDTH 1000 0
DWIDTH 16 0
BBX 14 14 0 2
BITMAP
3FF0
3FF0
F03C
F03C
F03C
F03C
CFCC
CFCC
F03C
F03C
F03C
F03C
3FF0
3FF0
ENDCHAR
STARTCHAR 0473
ENCODING 1139
SWIDTH 1000 0
DWIDTH 16 0
BBX 14 10 0 2
BITMAP
3FF0
3FF0
F03C
F03C
CFCC
CFCC
F03C
F03C
3FF0
3FF0
ENDCHAR
STARTCHAR 0474
ENCODING 1140
SWIDTH 1000 0
DWIDTH 16 0
BBX 14 14 0 2
BITMAP
F03C
F03C
F03C
F03C
F030
F030
F030
F030
3CF0
3CF0
0FC0
0FC0
0300
0300
ENDCHAR
STARTCHAR 0475
ENCODING 1141
SWIDTH 1000 0
DWIDTH 16 0
BBX 12 10 2 2
BITMAP
F0F0
F0F0
F0C0
F0C0
F0C0
F0C0
3FC0
3FC0
0F00
0F00
ENDCHAR
STARTCHAR 0490
ENCODING 1168
SWIDTH 1000 0
DWIDTH 16 0
BBX 12 14 2 2
BITMAP
00F0
00F0
FFF0
FFF0
F000
F000
F000
F000
F000
F000
F000
F000
F000
F000
ENDCHAR
STARTCHAR 0491
ENCODING 1169
SWIDTH 1000 0
DWIDTH 16 0
BBX 12 12 2 2
BITMAP
00F0
00F0
FFF0
FFF0
F000
F000
F000
F000
F000
F000
F000
F000
ENDCHAR
STARTCHAR 0492
ENCODING 1170
SWIDTH 1000 0
DWIDTH 16 0
BBX 14 14 0 2
BITMAP
3FFC
3FFC
3C0C
3C0C
3C00
3C00
FFC0
FFC0
3C00
3C00
3C00
3C00
3C00
3C00
ENDCHAR
STARTCHAR 0493
ENCODING 1171
SWIDTH 1000 0
DWIDTH 16 0
BBX 14 10 0 2
BITMAP
3FFC
3FFC
3C0C
3C0C
FFC0
FFC0
3C00
3C00
3C00
3C00
ENDCHAR
STARTCHAR 0494
ENCODING 1172
SWIDTH 1000 0
DWIDTH 16 0
BBX 12 16 2 0
BITMAP
FFF0
FFF0
F030
F030
F000
F000
FFC0
FFC0
F0F0
F0F0
F0F0
F0F0
F0F0
F0F0
03C0
03C0
ENDCHAR
STARTCHAR 0495
ENCODING 1173
SWIDTH 1000 0
DWIDTH 16 0
BBX 12 12 2 0
BITMAP
FFF0
FFF0
F000
F000
FFC0
FFC0
F0F0
F0F0
F0F0
F0F0
03C0
03C0
ENDCHAR
STARTCHAR 0496
ENCODING 1174
SWIDTH 1000 0
DWIDTH 16 0
BBX 16 16 0 0
BITMAP
F33C
F33C
F33C
F33C
3330
3330
0FC0
0FC0
3330
3330
F33C
F33C
F33F
F33F
000F
000F
ENDCHAR
STARTCHAR 0497
ENCODING 1175
SWIDTH 1000 0
DWIDTH 16 0
BBX 16 12 0 0
BITMAP
F33C
F33C
F33C
F33C
3FF0
3FF0
F33C
F33C
F33F
F33F
000F
000F
ENDCHAR
STARTCHAR 0498
ENCODING 1176
SWIDTH 1000 0
DWIDTH 16 0
BBX 14 16 0 0
BITMAP
3FF0
3FF0
F03C
F03C
003C
003C
0FF0
0FF0
003C
003C
F03C
F03C
3FF0
3FF0
0300
0300
ENDCHAR
STARTCHAR 0499
ENCODING 1177
SWIDTH 1000 0
DWIDTH 16 0
BBX 14 12 0 0
BITMAP
3FF0
3FF0
F03C
F03C
03F0
03F0
F03C
F03C
3FF0
3FF0
0300
0300
ENDCHAR
STARTCHAR 049A
ENCODING 1178
SWIDTH 1000 0
DWIDTH 16 0
BBX 14 16 0 0
BITMAP
F03C
F03C
F0F0
F0F0
F300
F300
FFC0
FFC0
F0F0
F0F0
F0F0
F0F0
F03C
F03C
003C
003C
ENDCHAR
STARTCHAR 049B
ENCODING 1179
SWIDTH 1000 0
DWIDTH 16 0
BBX 16 12 0 0
BITMAP
F03C
F03C
F0C0
F0C0
FFF0
FFF0
F03C
F03C
F03F
F03F
000F
000F
ENDCHAR
STARTCHAR 049C
ENCODING 1180
SWIDTH 1000 0
DWIDTH 16 0
BBX 14 14 0 2
BITMAP
F03C
F03C
F030
F030
F330
F330
FFC0
FFC0
F330
F330
F03C
F03C
F03C
F03C
ENDCHAR
STARTCHAR 049D
ENCODING 1181
SWIDTH 1000 0
DWIDTH 16 0
BBX 14 10 0 2
BITMAP
F03C
F03C
F330
F330
FFC0
FFC0
F33C
F33C
F03C
F03C
ENDCHAR
STARTCHAR 04A0
ENCODING 1184
SWIDTH 1000 0
DWIDTH 16 0
BBX 14 14 0 2
BITMAP
FC3C
FC3C
3C30
3C30
3CC0
3CC0
3FC0
3FC0
3CF0
3CF0
3CF0
3CF0
3C3C
3C3C
ENDCHAR
STARTCHAR 04A1
ENCODING 1185
SWIDTH 1000 0
DWIDTH 16 0
BBX 14 10 0 2
BITMAP
FC3C
FC3C
3CC0
3CC0
3FF0
3FF0
3C3C
3C3C
3C3C
3C3C
ENDCHAR
STARTCHAR 04A2
ENCODING 1186
SWIDTH 1000 0
DWIDTH 16 0
BBX 16 16 0 0
BITMAP
F03C
F03C
F03C
F03C
F03C
F03C
FFFC
FFFC
F03C
F03C
F03C
F03C
F03F
F03F
000F
000F
ENDCHAR
STARTCHAR 04A3
ENCODING 1187
SWIDTH 1000 0
DWIDTH 16 0
BBX 16 12 0 0
BITMAP
F03C
F03C
F03C
F03C
FFFC
FFFC
F03C
F03C
F03F
F03F
000F
000F
ENDCHAR
STARTCHAR 04A4
ENCODING 1188
SWIDTH 1000 0
DWIDTH 16 0
BBX 14 14 0 2
BITMAP
F3FC
F3FC
F3CC
F3CC
F3C0
F3C0
FFC0
FFC0
F3C0
F3C0
F3C0
F3C0
F3C0
F3C0
ENDCHAR
STARTCHAR 04A5
ENCODING 1189
SWIDTH 1000 0
DWIDTH 16 0
BBX 14 10 0 2
BITMAP
F3FC
F3FC
F3CC
F3CC
FFC0
FFC0
F3C0
F3C0
F3C0
F3C0
ENDCHAR
STARTCHAR 04AA
ENCODING 1194
SWIDTH 1000 0
DWIDTH 16 0
BBX 14 16 0 0
BITMAP
0FF0
0FF0
3C3C
3C3C
F000
F000
F000
F000
F000
F000
3C3C
3C3C
0FF0
0FF0
03C0
03C0
ENDCHAR
STARTCHAR 04AB
ENCODING 1195
SWIDTH 1000 0
DWIDTH 16 0
BBX 14 12 0 0
BITMAP
3FF0
3FF0
F03C
F03C
F000
F000
F03C
F03C
3FF0
3FF0
0300
0300
ENDCHAR
STARTCHAR 04AC
ENCODING 1196
SWIDTH 1000 0
DWIDTH 16 0
BBX 12 16 2 0
BITMAP
FFF0
FFF0
0F00
0F00
0F00
0F00
0F00
0F00
0F00
0F00
0F00
0F00
0FC0
0FC0
03C0
03C0
ENDCHAR
STARTCHAR 04AD
ENCODING 1197
SWIDTH 1000 0
DWIDTH 16 0
BBX 12 12 2 0
BITMAP
FFF0
FFF0
0F00
0F00
0F00
0F00
0F00
0F00
0FC0
0FC0
03C0
03C0
ENDCHAR
STARTCHAR 04AE
ENCODING 1198
SWIDTH 1000 0
DWIDTH 16 0
BBX 12 14 2 2
BITMAP
F0F0
F0F0
F0F0
F0F0
F0F0
F0F0
3FC0
3FC0
0F00
0F00
0F00
0F00
0F00
0F00
ENDCHAR
STARTCHAR 04AF
ENCODING 1199
SWIDTH 1000 0
DWIDTH 16 0
BBX 12 12 2 0
BITMAP
F0F0
F0F0
F0F0
F0F0
F0F0
F0F0
3FC0
3FC0
0F00
0F00
0F00
0F00
ENDCHAR
STARTCHAR 04B0
ENCODING 1200
SWIDTH 1000 0
DWIDTH 16 0
BBX 12 14 2 2
BITMAP
F0F0
F0F0
F0F0
F0F0
F0F0
F0F0
3FC0
3FC0
0F00
0F00
3FC0
3FC0
0F00
0F00
ENDCHAR
STARTCHAR 04B1
ENCODING 1201
SWIDTH 1000 0
DWIDTH 16 0
BBX 12 12 2 0
BITMAP
F0F0
F0F0
F0F0
F0F0
3FC0
3FC0
0F00
0F00
3FC0
3FC0
0F00
0F00
ENDCHAR
STARTCHAR 04B6
ENCODING 1206
SWIDTH 1000 0
DWIDTH 16 0
BBX 16 16 0 0
BITMAP
F03C
F03C
F03C
F03C
F03C
F03C
3FFC
3FFC
003C
003C
003C
003C
003F
003F
000F
000F
ENDCHAR
STARTCHAR 04B7
ENCODING 1207
SWIDTH 1000 0
DWIDTH 16 0
BBX 16 12 0 0
BITMAP
F03C
F03C
F03C
F03C
3FFC
3FFC
003C
003C
003F
003F
000F
000F
ENDCHAR
STARTCHAR 04B8
ENCODING 1208
SWIDTH 1000 0
DWIDTH 16 0
BBX 14 14 0 2
BITMAP
F03C
F03C
F03C
F03C
F33C
F33C
3FFC
3FFC
033C
033C
003C
003C
003C
003C
ENDCHAR
STARTCHAR 04B9
ENCODING 1209
SWIDTH 1000 0
DWIDTH 16 0
BBX 14 10 0 2
BITMAP
F03C
F03C
F33C
F33C
3FFC
3FFC
033C
033C
003C
003C
ENDCHAR
STARTCHAR 04BA
ENCODING 1210
SWIDTH 1000 0
DWIDTH 16 0
BBX 14 14 2 2
BITMAP
F000
F000
F000
F000
F000
F000
FFF0
FFF0
F03C
F03C
F03C
F03C
F03C
F03C
ENDCHAR
STARTCHAR 04BB
ENCODING 1211
SWIDTH 1000 0
DWIDTH 16 0
BBX 14 14 0 2
BITMAP
F000
F000
F000
F000
F3F0
F3F0
FC3C
FC3C
F03C
F03C
F03C
F03C
F03C
F03C
ENDCHAR
STARTCHAR 04C0
ENCODING 1216
SWIDTH 1000 0
DWIDTH 16 0
BBX 12 14 2 2
BITMAP
FFF0
FFF0
0F00
0F00
0F00
0F00
0F00
0F00
0F00
0F00
0F00
0F00
FFF0
FFF0
ENDCHAR
STARTCHAR 04C1
ENCODING 1217
SWIDTH 1000 0
DWIDTH 16 0
BBX 14 14 0 2
BITMAP
3FF0
3FF0
0000
0000
F33C
F33C
F33C
F33C
3FF0
3FF0
F33C
F33C
F33C
F33C
ENDCHAR
STARTCHAR 04C2
ENCODING 1218
SWIDTH 1000 0
DWIDTH 16 0
BBX 14 14 0 2
BITMAP
3FF0
3FF0
0000
0000
F33C
F33C
F33C
F33C
3FF0
3FF0
F33C
F33C
F33C
F33C
ENDCHAR
STARTCHAR 04CB
ENCODING 1227
SWIDTH 1000 0
DWIDTH 16 0
BBX 16 16 0 0
BITMAP
F03C
F03C
F03C
F03C
F03C
F03C
3FFC
3FFC
003C
003C
003C
003C
003F
003F
000F
000F
ENDCHAR
STARTCHAR 04CC
ENCODING 1228
SWIDTH 1000 0
DWIDTH 16 0
BBX 16 12 0 0
BITMAP
F03C
F03C
F03C
F03C
3FFC
3FFC
003C
003C
003F
003F
000F
000F
ENDCHAR
STARTCHAR 04CF
ENCODING 1231
SWIDTH 1000 0
DWIDTH 16 0
BBX 12 14 2 2
BITMAP
3F00
3F00
0F00
0F00
0F00
0F00
0F00
0F00
0F00
0F00
0F00
0F00
FFF0
FFF0
ENDCHAR
STARTCHAR 04D0
ENCODING 1232
SWIDTH 1000 0
DWIDTH 16 0
BBX 14 14 0 2
BITMAP
3FF0
3FF0
0000
0000
0FC0
0FC0
3CF0
3CF0
F03C
F03C
FFFC
FFFC
F03C
F03C
ENDCHAR
STARTCHAR 04D1
ENCODING 1233
SWIDTH 1000 0
DWIDTH 16 0
BBX 14 14 0 2
BITMAP
3FF0
3FF0
0000
0000
3FF0
3FF0
003C
003C
3FFC
3FFC
F03C
F03C
3FFC
3FFC
ENDCHAR
STARTCHAR 04D2
ENCODING 1234
SWIDTH 1000 0
DWIDTH 16 0
BBX 14 14 0 2
BITMAP
3CF0
3CF0
0000
0000
0FC0
0FC0
3CF0
3CF0
F03C
F03C
FFFC
FFFC
F03C
F03C
ENDCHAR
STARTCHAR 04D3
ENCODING 1235
SWIDTH 1000 0
DWIDTH 16 0
BBX 14 14 0 2
BITMAP
3CF0
3CF0
0000
0000
3FF0
3FF0
003C
003C
3FFC
3FFC
F03C
F03C
3FFC
3FFC
ENDCHAR
STARTCHAR 04D4
ENCODING 1236
SWIDTH 1000 0
DWIDTH 16 0
BBX 14 14 0 2
BITMAP
0FFC
0FFC
3FC0
3FC0
F3C0
F3C0
F3FC
F3FC
FFC0
FFC0
F3C0
F3C0
F3FC
F3FC
ENDCHAR
STARTCHAR 04D5
ENCODING 1237
SWIDTH 1000 0
DWIDTH 16 0
BBX 14 10 0 2
BITMAP
3FF0
3FF0
033C
033C
3FF0
3FF0
F300
F300
3FF0
3FF0
ENDCHAR
STARTCHAR 04D6
ENCODING 1238
SWIDTH 1000 0
DWIDTH 16 0
BBX 14 14 0 2
BITMAP
3FF0
3FF0
0000
0000
FFFC
FFFC
F000
F000
FFF0
FFF0
F000
F000
FFFC
FFFC
ENDCHAR
STARTCHAR 04D7
ENCODING 1239
SWIDTH 1000 0
DWIDTH 16 0
BBX 14 14 0 2
BITMAP
3FF0
3FF0
0000
0000
3FF0
3FF0
F03C
F03C
FFFC
FFFC
F000
F000
3FF0
3FF0
ENDCHAR
STARTCHAR 04D8
ENCODING 1240
SWIDTH 1000 0
DWIDTH 16 0
BBX 14 14 0 2
BITMAP
3FF0
3FF0
F03C
F03C
003C
003C
FFFC
FFFC
F03C
F03C
F03C
F03C
3FF0
3FF0
ENDCHAR
STARTCHAR 04D9
ENCODING 1241
SWIDTH 1000 0
DWIDTH 16 0
BBX 14 10 0 2
BITMAP
3FF0
3FF0
003C
003C
FFFC
FFFC
F03C
F03C
3FF0
3FF0
ENDCHAR
STARTCHAR 04DC
ENCODING 1244
SWIDTH 1000 0
DWIDTH 16 0
BBX 14 14 0 2
BITMAP
3CF0
3CF0
0000
0000
F33C
F33C
F33C
F33C
3FF0
3FF0
F33C
F33C
F33C
F33C
ENDCHAR
STARTCHAR 04DD
ENCODING 1245
SWIDTH 1000 0
DWIDTH 16 0
BBX 14 14 0 2
BITMAP
3CF0
3CF0
0000
0000
F33C
F33C
F33C
F33C
3FF0
3FF0
F33C
F33C
F33C
F33C
ENDCHAR
STARTCHAR 04DE
ENCODING 1246
SWIDTH 1000 0
DWIDTH 16 0
BBX 14 14 0 2
BITMAP
3CF0
3CF0
0000
0000
3FF0
3FF0
F03C
F03C
03F0
03F0
F03C
F03C
3FF0
3FF0
ENDCHAR
STARTCHAR 04DF
ENCODING 1247
SWIDTH 1000 0
DWIDTH 16 0
BBX 14 14 0 2
BITMAP
3CF0
3CF0
0000
0000
3FF0
3FF0
F03C
F03C
03F0
03F0
F03C
F03C
3FF0
3FF0
ENDCHAR
STARTCHAR 04E2
ENCODING 1250
SWIDTH 1000 0
DWIDTH 16 0
BBX 14 14 0 2
BITMAP
3FF0
3FF0
0000
0000
F03C
F03C
F0FC
F0FC
F3FC
F3FC
FF3C
FF3C
FC3C
FC3C
ENDCHAR
STARTCHAR 04E3
ENCODING 1251
SWIDTH 1000 0
DWIDTH 16 0
BBX 14 14 0 2
BITMAP
3FF0
3FF0
0000
0000
F03C
F03C
F0FC
F0FC
F33C
F33C
FC3C
FC3C
F03C
F03C
ENDCHAR
STARTCHAR 04E4
ENCODING 1252
SWIDTH 1000 0
DWIDTH 16 0
BBX 14 14 0 2
BITMAP
3CF0
3CF0
0000
0000
F03C
F03C
F0FC
F0FC
F3FC
F3FC
FF3C
FF3C
FC3C
FC3C
ENDCHAR
STARTCHAR 04E5
ENCODING 1253
SWIDTH 1000 0
DWIDTH 16 0
BBX 14 14 0 2
BITMAP
3CF0
3CF0
0000
0000
F03C
F03C
F0FC
F0FC
F33C
F33C
FC3C
FC3C
F03C
F03C
ENDCHAR
STARTCHAR 04E6
ENCODING 1254
SWIDTH 1000 0
DWIDTH 16 0
BBX 14 14 0 2
BITMAP
3CF0
3CF0
0000
0000
3FF0
3FF0
F03C
F03C
F03C
F03C
F03C
F03C
3FF0
3FF0
ENDCHAR
STARTCHAR 04E7
ENCODING 1255
SWIDTH 1000 0
DWIDTH 16 0
BBX 14 14 0 2
BITMAP
3CF0
3CF0
0000
0000
3FF0
3FF0
F03C
F03C
F03C
F03C
F03C
F03C
3FF0
3FF0
ENDCHAR
STARTCHAR 04E8
ENCODING 1256
SWIDTH 1000 0
DWIDTH 16 0
BBX 14 14 0 2
BITMAP
3FF0
3FF0
F03C
F03C
F03C
F03C
CFCC
CFCC
F03C
F03C
F03C
F03C
3FF0
3FF0
ENDCHAR
STARTCHAR 04E9
ENCODING 1257
SWIDTH 1000 0
DWIDTH 16 0
BBX 14 10 0 2
BITMAP
3FF0
3FF0
F03C
F03C
CFCC
CFCC
F03C
F03C
3FF0
3FF0
ENDCHAR
STARTCHAR 04EE
ENCODING 1262
SWIDTH 1000 0
DWIDTH 16 0
BBX 14 14 0 2
BITMAP
3FF0
3FF0
0000
0000
F03C
F03C
F03C
F03C
3FFC
3FFC
003C
003C
3FF0
3FF0
ENDCHAR
STARTCHAR 04EF
ENCODING 1263
SWIDTH 1000 0
DWIDTH 16 0
BBX 14 16 0 0
BITMAP
3FF0
3FF0
0000
0000
F03C
F03C
F03C
F03C
F03C
F03C
3FFC
3FFC
003C
003C
3FF0
3FF0
ENDCHAR
STARTCHAR 04F0
ENCODING 1264
SWIDTH 1000 0
DWIDTH 16 0
BBX 14 14 0 2
BITMAP
3CF0
3CF0
0000
0000
F03C
F03C
F03C
F03C
3FFC
3FFC
003C
003C
3FF0
3FF0
ENDCHAR
STARTCHAR 04F1
ENCODING 1265
SWIDTH 1000 0
DWIDTH 16 0
BBX 14 16 0 0
BITMAP
3CF0
3CF0
0000
0000
F03C
F03C
F03C
F03C
F03C
F03C
3FFC
3FFC
003C
003C
3FF0
3FF0
ENDCHAR
STARTCHAR 04F2
ENCODING 1266
SWIDTH 1000 0
DWIDTH 16 0
BBX 14 14 0 2
BITMAP
0C30
0C30
30C0
30C0
F03C
F03C
F03C
F03C
3FFC
3FFC
003C
003C
3FF0
3FF0
ENDCHAR
STARTCHAR 04F3
ENCODING 1267
SWIDTH 1000 0
DWIDTH 16 0
BBX 14 16 0 0
BITMAP
0C30
0C30
30C0
30C0
F03C
F03C
F03C
F03C
F03C
F03C
3FFC
3FFC
003C
003C
3FF0
3FF0
ENDCHAR
STARTCHAR 04F4
ENCODING 1268
SWIDTH 1000 0
DWIDTH 16 0
BBX 14 14 0 2
BITMAP
3CF0
3CF0
0000
0000
F03C
F03C
F03C
F03C
3FFC
3FFC
003C
003C
003C
003C
ENDCHAR
STARTCHAR 04F5
ENCODING 1269
SWIDTH 1000 0
DWIDTH 16 0
BBX 14 14 0 2
BITMAP
3CF0
3CF0
0000
0000
F03C
F03C
F03C
F03C
3FFC
3FFC
003C
003C
003C
003C
ENDCHAR
STARTCHAR 04F6
ENCODING 1270
SWIDTH 1000 0
DWIDTH 16 0
BBX 12 16 2 0
BITMAP
FFF0
FFF0
F030
F030
F000
F000
F000
F000
F000
F000
F000
F000
FC00
FC00
3C00
3C00
ENDCHAR
STARTCHAR 04F7
ENCODING 1271
SWIDTH 1000 0
DWIDTH 16 0
BBX 12 12 2 0
BITMAP
FFF0
FFF0
F030
F030
F000
F000
F000
F000
FC00
FC00
3C00
3C00
ENDCHAR
STARTCHAR 04F8
ENCODING 1272
SWIDTH 1000 0
DWIDTH 16 0
BBX 14 14 0 2
BITMAP
3CF0
3CF0
0000
0000
F03C
F03C
FF3C
FF3C
F33C
F33C
F33C
F33C
FF3C
FF3C
ENDCHAR
STARTCHAR 04F9
ENCODING 1273
SWIDTH 1000 0
DWIDTH 16 0
BBX 14 14 0 2
BITMAP
3CF0
3CF0
0000
0000
F03C
F03C
F03C
F03C
FF3C
FF3C
F33C
F33C
FF3C
FF3C
ENDCHAR
STARTCHAR 051A
ENCODING 1306
SWIDTH 1000 0
DWIDTH 16 0
BBX 14 14 0 2
BITMAP
3FF0
3FF0
F03C
F03C
F03C
F03C
F03C
F03C
F3FC
F3FC
F0F0
F0F0
3FCC
3FCC
ENDCHAR
STARTCHAR 051B
ENCODING 1307
SWIDTH 1000 0
DWIDTH 16 0
BBX 14 12 0 0
BITMAP
3FFC
3FFC
F03C
F03C
F03C
F03C
3FFC
3FFC
003C
003C
003C
003C
ENDCHAR
STARTCHAR 051C
ENCODING 1308
SWIDTH 1000 0
DWIDTH 16 0
BBX 14 14 0 2
BITMAP
F33C
F33C
F33C
F33C
F33C
F33C
F33C
F33C
FFFC
FFFC
FCFC
FCFC
3030
3030
ENDCHAR
STARTCHAR 051D
ENCODING 1309
SWIDTH 1000 0
DWIDTH 16 0
BBX 14 10 0 2
BITMAP
F33C
F33C
F33C
F33C
F33C
F33C
F33C
F33C
3CF0
3CF0
ENDCHAR
STARTCHAR 0524
ENCODING 1316
SWIDTH 1000 0
DWIDTH 16 0
BBX 16 16 0 0
BITMAP
FFFC
FFFC
F03C
F03C
F03C
F03C
F03C
F03C
F03C
F03C
F03C
F03C
F03F
F03F
000F
000F
ENDCHAR
STARTCHAR 0525
ENCODING 1317
SWIDTH 1000 0
DWIDTH 16 0
BBX 16 12 0 0
BITMAP
FFFC
FFFC
F03C
F03C
F03C
F03C
F03C
F03C
F03F
F03F
000F
000F
ENDCHAR
STARTCHAR 2013
ENCODING 8211
SWIDTH 1000 0
DWIDTH 16 0
BBX 14 2 0 8
BITMAP
FFFC
FFFC
ENDCHAR
STARTCHAR 2014
ENCODING 8212
SWIDTH 1000 0
DWIDTH 16 0
BBX 16 2 0 8
BITMAP
FFFF
FFFF
ENDCHAR
STARTCHAR 2015
ENCODING 8213
SWIDTH 1000 0
DWIDTH 16 0
BBX 14 2 0 8
BITMAP
FFFC
FFFC
ENDCHAR
STARTCHAR 2018
ENCODING 8216
SWIDTH 1000 0
DWIDTH 16 0
BBX 6 6 4 10
BITMAP
3C
3C
F0
F0
F0
F0
ENDCHAR
STARTCHAR 2019
ENCODING 8217
SWIDTH 1000 0
DWIDTH 16 0
BBX 6 6 4 10
BITMAP
3C
3C
3C
3C
F0
F0
ENDCHAR
STARTCHAR 201A
ENCODING 8218
SWIDTH 1000 0
DWIDTH 16 0
BBX 6 6 4 2
BITMAP
3C
3C
3C
3C
F0
F0
ENDCHAR
STARTCHAR 201C
ENCODING 8220
SWIDTH 1000 0
DWIDTH 16 0
BBX 12 6 2 10
BITMAP
3CF0
3CF0
F3C0
F3C0
F3C0
F3C0
ENDCHAR
STARTCHAR 201D
ENCODING 8221
SWIDTH 1000 0
DWIDTH 16 0
BBX 12 6 2 10
BITMAP
3CF0
3CF0
3CF0
3CF0
F3C0
F3C0
ENDCHAR
STARTCHAR 201E
ENCODING 8222
SWIDTH 1000 0
DWIDTH 16 0
BBX 12 6 0 2
BITMAP
3CF0
3CF0
3CF0
3CF0
F3C0
F3C0
ENDCHAR
STARTCHAR 2020
ENCODING 8224
SWIDTH 1000 0
DWIDTH 16 0
BBX 12 14 2 2
BITMAP
0F00
0F00
0F00
0F00
FFF0
FFF0
0F00
0F00
0F00
0F00
0F00
0F00
0F00
0F00
ENDCHAR
STARTCHAR 2021
ENCODING 8225
SWIDTH 1000 0
DWIDTH 16 0
BBX 12 14 2 2
BITMAP
0F00
0F00
0F00
0F00
FFF0
FFF0
0F00
0F00
FFF0
FFF0
0F00
0F00
0F00
0F00
ENDCHAR
STARTCHAR 2022
ENCODING 8226
SWIDTH 1000 0
DWIDTH 16 0
BBX 8 8 4 4
BITMAP
3C
3C
FF
FF
FF
FF
3C
3C
ENDCHAR
STARTCHAR 2026
ENCODING 8230
SWIDTH 1000 0
DWIDTH 16 0
BBX 14 4 0 2
BITMAP
C30C
C30C
C30C
C30C
ENDCHAR
STARTCHAR 2030
ENCODING 8240
SWIDTH 1000 0
DWIDTH 16 0
BBX 16 14 0 2
BITMAP
3C0C
3C0C
CC30
CC30
F0C0
F0C0
0300
0300
0CFF
0CFF
3333
3333
C3FC
C3FC
ENDCHAR
STARTCHAR 2039
ENCODING 8249
SWIDTH 1000 0
DWIDTH 16 0
BBX 8 10 4 4
BITMAP
0F
0F
3C
3C
F0
F0
3C
3C
0F
0F
ENDCHAR
STARTCHAR 203A
ENCODING 8250
SWIDTH 1000 0
DWIDTH 16 0
BBX 8 10 2 4
BITMAP
F0
F0
3C
3C
0F
0F
3C
3C
F0
F0
ENDCHAR
STARTCHAR 2044
ENCODING 8260
SWIDTH 1000 0
DWIDTH 16 0
BBX 14 14 0 2
BITMAP
000C
000C
0030
0030
00C0
00C0
0300
0300
0C00
0C00
3000
3000
C000
C000
ENDCHAR
STARTCHAR 2074
ENCODING 8308
SWIDTH 1000 0
DWIDTH 16 0
BBX 6 8 4 8
BITMAP
0C
0C
3C
3C
FC
FC
0C
0C
ENDCHAR
STARTCHAR 20AC
ENCODING 8364
SWIDTH 1000 0
DWIDTH 16 0
BBX 14 14 0 2
BITMAP
03F0
03F0
0F3C
0F3C
FFC0
FFC0
3C00
3C00
FFC0
FFC0
0F3C
0F3C
03F0
03F0
ENDCHAR
STARTCHAR 20AE
ENCODING 8366
SWIDTH 1000 0
DWIDTH 16 0
BBX 12 14 2 2
BITMAP
FFF0
FFF0
0F00
0F00
0FC0
0FC0
3F00
3F00
0FC0
0FC0
3F00
3F00
0F00
0F00
ENDCHAR
STARTCHAR 20AF
ENCODING 8367
SWIDTH 1000 0
DWIDTH 16 0
BBX 14 16 0 0
BITMAP
3C00
3C00
C300
C300
C330
C330
C3CC
C3CC
C3CC
C3CC
C3CC
C3CC
FCF0
FCF0
00C0
00C0
ENDCHAR
STARTCHAR 20B4
ENCODING 8372
SWIDTH 1000 0
DWIDTH 16 0
BBX 14 14 0 2
BITMAP
3FC0
3FC0
00F0
00F0
FFFC
FFFC
0000
0000
FFFC
FFFC
3C00
3C00
0FF0
0FF0
ENDCHAR
STARTCHAR 20B8
ENCODING 8376
SWIDTH 1000 0
DWIDTH 16 0
BBX 12 14 2 2
BITMAP
FFF0
FFF0
0000
0000
FFF0
FFF0
0F00
0F00
0F00
0F00
0F00
0F00
0F00
0F00
ENDCHAR
STARTCHAR 20BD
ENCODING 8381
SWIDTH 1000 0
DWIDTH 16 0
BBX 16 14 0 2
BITMAP
3FFC
3FFC
3C0F
3C0F
3C0F
3C0F
FFFC
FFFC
3C00
3C00
FFC0
FFC0
3C00
3C00
ENDCHAR
STARTCHAR 2116
ENCODING 8470
SWIDTH 1000 0
DWIDTH 16 0
BBX 14 14 0 2
BITMAP
F030
F030
CCCC
CCCC
CCCC
CCCC
CCCC
CCCC
CC30
CC30
CC00
CC00
CCFC
CCFC
ENDCHAR
STARTCHAR 2122
ENCODING 8482
SWIDTH 1000 0
DWIDTH 16 0
BBX 12 8 2 8
BITMAP
FFF0
FFF0
33F0
33F0
3330
3330
3330
3330
ENDCHAR
STARTCHAR 2190
ENCODING 8592
SWIDTH 1000 0
DWIDTH 16 0
BBX 16 14 0 2
BITMAP
0300
0300
0F00
0F00
3FFF
3FFF
FFFF
FFFF
3FFF
3FFF
0F00
0F00
0300
0300
ENDCHAR
STARTCHAR 2191
ENCODING 8593
SWIDTH 1000 0
DWIDTH 16 0
BBX 14 16 0 0
BITMAP
0300
0300
0FC0
0FC0
3FF0
3FF0
FFFC
FFFC
0FC0
0FC0
0FC0
0FC0
0FC0
0FC0
0FC0
0FC0
ENDCHAR
STARTCHAR 2192
ENCODING 8594
SWIDTH 1000 0
DWIDTH 16 0
BBX 16 14 0 2
BITMAP
00C0
00C0
00F0
00F0
FFFC
FFFC
FFFF
FFFF
FFFC
FFFC
00F0
00F0
00C0
00C0
ENDCHAR
STARTCHAR 2193
ENCODING 8595
SWIDTH 1000 0
DWIDTH 16 0
BBX 14 16 0 0
BITMAP
0FC0
0FC0
0FC0
0FC0
0FC0
0FC0
0FC0
0FC0
FFFC
FFFC
3FF0
3FF0
0FC0
0FC0
0300
0300
ENDCHAR
STARTCHAR 2202
ENCODING 8706
SWIDTH 1000 0
DWIDTH 16 0
BBX 14 14 0 2
BITMAP
3FC0
3FC0
F0F0
F0F0
003C
003C
3FFC
3FFC
F03C
F03C
F03C
F03C
3FF0
3FF0
ENDCHAR
STARTCHAR 2206
ENCODING 8710
SWIDTH 1000 0
DWIDTH 16 0
BBX 14 14 0 2
BITMAP
0FC0
0FC0
3CF0
3CF0
F03C
F03C
F03C
F03C
F03C
F03C
F03C
F03C
FFFC
FFFC
ENDCHAR
STARTCHAR 220F
ENCODING 8719
SWIDTH 1000 0
DWIDTH 16 0
BBX 14 14 0 2
BITMAP
FFFC
FFFC
F03C
F03C
F03C
F03C
F03C
F03C
F03C
F03C
F03C
F03C
F03C
F03C
ENDCHAR
STARTCHAR 2211
ENCODING 8721
SWIDTH 1000 0
DWIDTH 16 0
BBX 14 14 0 2
BITMAP
FFFC
FFFC
3C3C
3C3C
0F00
0F00
03F0
03F0
0F00
0F00
3C3C
3C3C
FFFC
FFFC
ENDCHAR
STARTCHAR 2215
ENCODING 8725
SWIDTH 1000 0
DWIDTH 16 0
BBX 14 14 0 2
BITMAP
000C
000C
0030
0030
00C0
00C0
0300
0300
0C00
0C00
3000
3000
C000
C000
ENDCHAR
STARTCHAR 221A
ENCODING 8730
SWIDTH 1000 0
DWIDTH 16 0
BBX 14 14 0 2
BITMAP
03FC
03FC
03C0
03C0
03C0
03C0
03C0
03C0
F3C0
F3C0
3FC0
3FC0
0FC0
0FC0
ENDCHAR
STARTCHAR 221E
ENCODING 8734
SWIDTH 1000 0
DWIDTH 16 0
BBX 14 8 0 4
BITMAP
3CF0
3CF0
C30C
C30C
C30C
C30C
3CF0
3CF0
ENDCHAR
STARTCHAR 222B
ENCODING 8747
SWIDTH 1000 0
DWIDTH 16 0
BBX 12 16 2 0
BITMAP
03C0
03C0
0F30
0F30
0F00
0F00
0F00
0F00
0F00
0F00
0F00
0F00
CF00
CF00
3C00
3C00
ENDCHAR
STARTCHAR 2248
ENCODING 8776
SWIDTH 1000 0
DWIDTH 16 0
BBX 12 10 0 4
BITMAP
3C30
3C30
C3C0
C3C0
0000
0000
3C30
3C30
C3C0
C3C0
ENDCHAR
STARTCHAR 2260
ENCODING 8800
SWIDTH 1000 0
DWIDTH 16 0
BBX 14 14 0 2
BITMAP
000C
000C
0030
0030
FFFC
FFFC
0300
0300
FFFC
FFFC
3000
3000
C000
C000
ENDCHAR
STARTCHAR 2264
ENCODING 8804
SWIDTH 1000 0
DWIDTH 16 0
BBX 8 14 4 2
BITMAP
0F
0F
3C
3C
F0
F0
3C
3C
0F
0F
00
00
FF
FF
ENDCHAR
STARTCHAR 2265
ENCODING 8805
SWIDTH 1000 0
DWIDTH 16 0
BBX 8 14 4 2
BITMAP
F0
F0
3C
3C
0F
0F
3C
3C
F0
F0
00
00
FF
FF
ENDCHAR
STARTCHAR 25B2
ENCODING 9650
SWIDTH 1000 0
DWIDTH 16 0
BBX 14 14 0 2
BITMAP
0300
0300
0300
0300
0FC0
0FC0
0FC0
0FC0
3FF0
3FF0
3FF0
3FF0
FFFC
FFFC
ENDCHAR
STARTCHAR 25B6
ENCODING 9654
SWIDTH 1000 0
DWIDTH 16 0
BBX 14 14 0 2
BITMAP
C000
C000
FC00
FC00
FFC0
FFC0
FFFC
FFFC
FFC0
FFC0
FC00
FC00
C000
C000
ENDCHAR
STARTCHAR 25BC
ENCODING 9660
SWIDTH 1000 0
DWIDTH 16 0
BBX 14 14 0 2
BITMAP
FFFC
FFFC
3FF0
3FF0
3FF0
3FF0
0FC0
0FC0
0FC0
0FC0
0300
0300
0300
0300
ENDCHAR
STARTCHAR 25C0
ENCODING 9664
SWIDTH 1000 0
DWIDTH 16 0
BBX 14 14 0 2
BITMAP
000C
000C
00FC
00FC
0FFC
0FFC
FFFC
FFFC
0FFC
0FFC
00FC
00FC
000C
000C
ENDCHAR
STARTCHAR 25CA
ENCODING 9674
SWIDTH 1000 0
DWIDTH 16 0
BBX 14 14 0 2
BITMAP
0300
0300
0CC0
0CC0
3030
3030
C00C
C00C
3030
3030
0CC0
0CC0
0300
0300
ENDCHAR
STARTCHAR 2605
ENCODING 9733
SWIDTH 1000 0
DWIDTH 16 0
BBX 14 14 0 2
BITMAP
0300
0300
0300
0300
FFFC
FFFC
3FF0
3FF0
0FC0
0FC0
3CF0
3CF0
3030
3030
ENDCHAR
STARTCHAR 2606
ENCODING 9734
SWIDTH 1000 0
DWIDTH 16 0
BBX 14 14 0 2
BITMAP
0300
0300
0300
0300
FCFC
FCFC
3030
3030
0CC0
0CC0
3FF0
3FF0
3030
3030
ENDCHAR
STARTCHAR 2660
ENCODING 9824
SWIDTH 1000 0
DWIDTH 16 0
BBX 14 14 0 2
BITMAP
0300
0300
0FC0
0FC0
3FF0
3FF0
FFFC
FFFC
FFFC
FFFC
0FC0
0FC0
3FF0
3FF0
ENDCHAR
STARTCHAR 2663
ENCODING 9827
SWIDTH 1000 0
DWIDTH 16 0
BBX 12 14 2 2
BITMAP
0F00
0F00
0F00
0F00
F0F0
F0F0
F0F0
F0F0
0F00
0F00
0F00
0F00
3FC0
3FC0
ENDCHAR
STARTCHAR 2665
ENCODING 9829
SWIDTH 1000 0
DWIDTH 16 0
BBX 14 14 0 2
BITMAP
3CF0
3CF0
FFFC
FFFC
FFFC
FFFC
FFFC
FFFC
3FF0
3FF0
0FC0
0FC0
0300
0300
ENDCHAR
STARTCHAR 2666
ENCODING 9830
SWIDTH 1000 0
DWIDTH 16 0
BBX 14 14 0 2
BITMAP
0300
0300
0FC0
0FC0
3FF0
3FF0
FFFC
FFFC
3FF0
3FF0
0FC0
0FC0
0300
0300
ENDCHAR
STARTCHAR 266A
ENCODING 9834
SWIDTH 1000 0
DWIDTH 16 0
BBX 14 14 0 2
BITMAP
0300
0300
03C0
03C0
0330
0330
030C
030C
3F30
3F30
FF00
FF00
3C00
3C00
ENDCHAR
STARTCHAR F100
ENCODING 61696
SWIDTH 1000 0
DWIDTH 16 0
BBX 12 14 2 2
BITMAP
FFF0
FFF0
C030
C030
FF30
FF30
F030
F030
FFF0
FFF0
F3F0
F3F0
FFF0
FFF0
ENDCHAR
STARTCHAR F101
ENCODING 61697
SWIDTH 1000 0
DWIDTH 16 0
BBX 10 4 2 2
BITMAP
0FC0
0FC0
FFC0
FFC0
ENDCHAR
STARTCHAR F8FF
ENCODING 63743
SWIDTH 1000 0
DWIDTH 16 0
BBX 16 14 0 2
BITMAP
00C0
00C0
3F3C
3F3C
FFF3
FFF3
FFF3
FFF3
FFCF
FFCF
3FFC
3FFC
0CF0
0CF0
ENDCHAR
STARTCHAR FB01
ENCODING 64257
SWIDTH 1000 0
DWIDTH 16 0
BBX 14 14 0 2
BITMAP
0FC0
0FC0
3C00
3C00
FFFC
FFFC
3C3C
3C3C
3C3C
3C3C
3C3C
3C3C
3C3C
3C3C
ENDCHAR
STARTCHAR FB02
ENCODING 64258
SWIDTH 1000 0
DWIDTH 16 0
BBX 14 14 0 2
BITMAP
0FFC
0FFC
3C3C
3C3C
FFFC
FFFC
3C3C
3C3C
3C3C
3C3C
3C3C
3C3C
3C3C
3C3C
ENDCHAR
ENDFONT
